<?xml version="1.0" encoding="utf-8"?>
<!-- Generator: Adobe Illustrator 22.1.0, SVG Export Plug-In . SVG Version: 6.00 Build 0)  -->
<svg version="1.1" id="图层_1" xmlns="http://www.w3.org/2000/svg" xmlns:xlink="http://www.w3.org/1999/xlink" x="0px" y="0px"
	 viewBox="0 0 558.3 407.2" style="enable-background:new 0 0 558.3 407.2;" xml:space="preserve">
<style type="text/css">
	.st0{fill:#B2D9FF;}
	.st1{fill:none;stroke:#000000;stroke-linecap:round;stroke-linejoin:round;stroke-miterlimit:10;}
	.st2{fill:#66BFFF;}
	.st3{fill:none;stroke:#000000;stroke-miterlimit:10;}
	.st4{fill:none;stroke:#000000;stroke-linecap:round;stroke-miterlimit:10;}
	.st5{stroke:#000000;stroke-miterlimit:10;}
	.st6{clip-path:url(#SVGID_2_);}
	.st7{clip-path:url(#SVGID_4_);}
	.st8{clip-path:url(#SVGID_6_);}
	.st9{clip-path:url(#SVGID_8_);}
	.st10{clip-path:url(#SVGID_10_);}
	.st11{clip-path:url(#SVGID_12_);}
	.st12{clip-path:url(#SVGID_14_);}
	.st13{clip-path:url(#SVGID_16_);}
	.st14{clip-path:url(#SVGID_18_);}
	.st15{clip-path:url(#SVGID_20_);}
	.st16{fill:#FFFFFF;stroke:#66CC00;stroke-width:1.5;stroke-miterlimit:10;}
	.st17{fill:#333333;}
	.st18{font-family:'GlowSansSC-Normal-Regular-GBpc-EUC-H';}
	.st19{font-size:12px;}
</style>
<g id="surface1">
	<path class="st0" d="M206,235.7h22.7v-5.3H206V235.7z"/>
	<path class="st1" d="M206,230.4h22.7v5.3H206V230.4z"/>
	<path class="st1" d="M232.2,234.9h22.7v5.3h-22.7V234.9z"/>
	<path class="st2" d="M232.2,231.2h22.7v-5.3h-22.7V231.2z"/>
	<path class="st1" d="M232.2,225.9h22.7v5.3h-22.7V225.9z"/>
	<path class="st1" d="M243.5,234.9v-0.3"/>
	<path class="st3" d="M243.5,233.6v1 M243.2,234.6l0.4-1l0.4,1"/>
	<path class="st1" d="M258.5,234.9h22.7v5.3h-22.7V234.9z"/>
	<path class="st2" d="M258.5,231.2h22.7v-5.3h-22.7V231.2z"/>
	<path class="st1" d="M258.5,225.9h22.7v5.3h-22.7V225.9z"/>
	<path class="st1" d="M269.8,234.9v-0.3"/>
	<path class="st3" d="M269.8,233.6v1 M269.4,234.6l0.4-1l0.4,1"/>
	<path class="st0" d="M284.5,239.9h22.7v-5.3h-22.7V239.9z"/>
	<path class="st1" d="M284.5,234.6h22.7v5.3h-22.7V234.6z"/>
	<path class="st1" d="M284.5,225.7h22.7v5.3h-22.7V225.7z"/>
	<path class="st1" d="M295.9,234.6v-0.3"/>
	<path class="st3" d="M295.9,233.3v1 M295.5,234.3l0.4-1l0.4,1"/>
	<path class="st0" d="M245.2,249.1h22.7v-5.3h-22.7V249.1z"/>
	<path class="st1" d="M245.2,243.9h22.7v5.3h-22.7V243.9z"/>
	<path class="st0" d="M245.2,222.3h22.7V217h-22.7V222.3z"/>
	<path class="st1" d="M245.2,217h22.7v5.3h-22.7V217z"/>
	<path class="st4" d="M260.5,243.9l2.6-1.8"/>
	<path class="st5" d="M263.9,241.5l-1,0.3l0.4,0.6L263.9,241.5z"/>
	<path class="st4" d="M252.7,243.9l-2.5-1.8"/>
	<path class="st5" d="M249.3,241.5l0.6,0.9l0.4-0.6L249.3,241.5z"/>
	<path class="st4" d="M247.4,225.9l2.6-1.8"/>
	<path class="st5" d="M250.8,223.6l-1,0.3l0.4,0.6L250.8,223.6z"/>
	<path class="st4" d="M265.9,225.9l-2.6-1.8"/>
	<path class="st5" d="M262.4,223.6l0.6,0.9l0.4-0.6L262.4,223.6z"/>
	<path class="st4" d="M267.9,246.9C267.9,246.9,267.9,246.9,267.9,246.9h21.7c2.5,0,4.7-1.5,5.7-3.6"/>
	<path class="st5" d="M295.5,242.2l-0.5,0.9l0.7,0.1L295.5,242.2z"/>
	<path class="st4" d="M245.2,246.8C245.2,246.8,245.2,246.8,245.2,246.8l-21.7,0c-3.4,0-6.3-2.8-6.3-6.3v-1.5"/>
	<path class="st5" d="M217.3,238.1l-0.4,1h0.7L217.3,238.1z"/>
	<path class="st4" d="M217.3,230.4V226c0-3.5,2.8-6.3,6.3-6.3h18.3"/>
	<path class="st5" d="M242.9,219.8l-1-0.4v0.7L242.9,219.8z"/>
	<path class="st4" d="M295.8,225.7c-0.4-3.1-3-5.5-6.2-5.5h-18.3"/>
	<path class="st5" d="M270.3,220.1l1,0.4v-0.8L270.3,220.1z"/>
	<path class="st0" d="M206,372h101.3v-18.8H206V372z"/>
	<path class="st1" d="M206,353.2h101.3V372H206V353.2z"/>
	<path d="M214.3,365.2l1-0.1c0.1,0.6,0.3,1,0.6,1.2c0.3,0.3,0.6,0.4,1,0.4c0.5,0,0.8-0.2,1.2-0.5c0.3-0.3,0.5-0.7,0.5-1.2
		c0-0.5-0.2-0.8-0.4-1.1c-0.3-0.3-0.7-0.4-1.1-0.4c-0.2,0-0.4,0-0.7,0.1l0.1-0.9c0.1,0,0.1,0,0.2,0c0.4,0,0.8-0.1,1.1-0.3
		c0.3-0.2,0.5-0.6,0.5-1c0-0.4-0.1-0.7-0.4-0.9c-0.3-0.2-0.6-0.4-1-0.4c-0.4,0-0.7,0.1-1,0.4c-0.3,0.2-0.4,0.6-0.5,1.1l-1-0.2
		c0.1-0.7,0.4-1.2,0.8-1.5c0.4-0.4,1-0.5,1.6-0.5c0.4,0,0.8,0.1,1.2,0.3c0.4,0.2,0.7,0.4,0.9,0.8c0.2,0.3,0.3,0.7,0.3,1
		c0,0.4-0.1,0.7-0.3,1c-0.2,0.3-0.5,0.5-0.8,0.7c0.5,0.1,0.8,0.3,1.1,0.7c0.3,0.3,0.4,0.8,0.4,1.3c0,0.7-0.3,1.3-0.8,1.8
		c-0.5,0.5-1.2,0.7-1.9,0.7c-0.7,0-1.3-0.2-1.8-0.6C214.7,366.4,214.4,365.9,214.3,365.2z"/>
	<g>
		<defs>
			<rect id="SVGID_1_" x="223.5" y="361.2" width="5.9" height="5.8"/>
		</defs>
		<clipPath id="SVGID_2_">
			<use xlink:href="#SVGID_1_"  style="overflow:visible;"/>
		</clipPath>
		<g class="st6">
			<path d="M226.7,364.2l2.2-2.2c0.1-0.1,0.2-0.2,0.2-0.2c0-0.1-0.1-0.2-0.2-0.2c-0.1,0-0.1,0-0.2,0.2l-2.2,2.2l-2.2-2.2
				c-0.1-0.1-0.2-0.2-0.2-0.2c-0.1,0-0.2,0.1-0.2,0.2c0,0.1,0.1,0.1,0.2,0.2l2.2,2.2l-2.2,2.2c-0.1,0.1-0.2,0.2-0.2,0.2
				c0,0.1,0.1,0.2,0.2,0.2c0.1,0,0.1,0,0.2-0.2l2.2-2.2l2.2,2.2c0.1,0.1,0.2,0.2,0.2,0.2c0.1,0,0.2-0.1,0.2-0.2c0-0.1,0-0.1-0.2-0.2
				L226.7,364.2z"/>
			<path d="M226.7,364.2l2.2-2.2c0.1-0.1,0.2-0.2,0.2-0.2c0-0.1-0.1-0.2-0.2-0.2c-0.1,0-0.1,0-0.2,0.2l-2.2,2.2l-2.2-2.2
				c-0.1-0.1-0.2-0.2-0.2-0.2c-0.1,0-0.2,0.1-0.2,0.2c0,0.1,0.1,0.1,0.2,0.2l2.2,2.2l-2.2,2.2c-0.1,0.1-0.2,0.2-0.2,0.2
				c0,0.1,0.1,0.2,0.2,0.2c0.1,0,0.1,0,0.2-0.2l2.2-2.2l2.2,2.2c0.1,0.1,0.2,0.2,0.2,0.2c0.1,0,0.2-0.1,0.2-0.2c0-0.1,0-0.1-0.2-0.2
				L226.7,364.2z"/>
		</g>
	</g>
	<path d="M234.1,365.2l1-0.1c0.1,0.6,0.3,1,0.6,1.2c0.3,0.3,0.6,0.4,1,0.4c0.5,0,0.8-0.2,1.2-0.5c0.3-0.3,0.5-0.7,0.5-1.2
		c0-0.5-0.1-0.8-0.4-1.1c-0.3-0.3-0.7-0.4-1.1-0.4c-0.2,0-0.4,0-0.7,0.1l0.1-0.9c0.1,0,0.1,0,0.2,0c0.4,0,0.8-0.1,1.1-0.3
		c0.3-0.2,0.5-0.6,0.5-1c0-0.4-0.1-0.7-0.4-0.9s-0.6-0.4-1-0.4c-0.4,0-0.7,0.1-1,0.4c-0.2,0.2-0.4,0.6-0.5,1.1l-1-0.2
		c0.1-0.7,0.4-1.2,0.8-1.5c0.4-0.4,1-0.5,1.6-0.5c0.4,0,0.8,0.1,1.2,0.3c0.4,0.2,0.7,0.4,0.9,0.8c0.2,0.3,0.3,0.7,0.3,1
		c0,0.4-0.1,0.7-0.3,1c-0.2,0.3-0.5,0.5-0.8,0.7c0.5,0.1,0.9,0.3,1.1,0.7c0.3,0.3,0.4,0.8,0.4,1.3c0,0.7-0.3,1.3-0.8,1.8
		c-0.5,0.5-1.2,0.7-1.9,0.7c-0.7,0-1.3-0.2-1.8-0.6C234.5,366.4,234.2,365.9,234.1,365.2z"/>
	<path d="M243.7,362.5v0.6h1.1v3.9l-1.1,0l0.1,0.7c1.6-0.1,2.9-0.2,4-0.3v1h0.8v-1.1c0.2,0,0.4-0.1,0.6-0.1v-0.6
		c-0.2,0-0.4,0.1-0.6,0.1v-3.6h5.1v-0.6H243.7z M245.5,367v-1h2.3v0.8C247.1,366.9,246.4,367,245.5,367z M245.5,365.5v-0.8h2.3v0.8
		H245.5z M245.5,364v-0.9h2.3v0.9H245.5z M245.2,358.6v3.2h7.1v-3.2H245.2z M251.5,361.2h-5.6v-0.8h5.6V361.2z M245.9,359.9v-0.7
		h5.6v0.7H245.9z M249.5,364.6c0.2,0.8,0.6,1.6,1.3,2.2c-0.5,0.4-1.1,0.7-1.7,1l0.4,0.6c0.7-0.3,1.4-0.7,1.9-1.2
		c0.5,0.4,1.1,0.8,1.9,1.2l0.4-0.7c-0.7-0.3-1.3-0.6-1.8-1c0.5-0.6,0.9-1.4,1.1-2.2v-0.6h-3.8v0.7H249.5z M251.3,366.3
		c-0.5-0.5-0.9-1.1-1.1-1.7h2.1C252.1,365.2,251.8,365.8,251.3,366.3z"/>
	<path d="M255,361.1v0.8h4.2c-0.6,2.8-2.1,4.7-4.5,5.9l0.5,0.7c2.4-1.3,3.9-3.2,4.6-6c0.9,2.6,2.4,4.5,4.7,5.9l0.5-0.6
		c-2.3-1.4-3.9-3.3-4.6-5.9h4.4v-0.8h-4.7c0.1-0.7,0.1-1.4,0.1-2.2v-0.7h-0.8v0.9c0,0.7-0.1,1.4-0.2,2H255z"/>
	<path d="M270.7,367.3v-7.9h5.4v-0.8h-6.2v9.5h6.3v-0.8H270.7z M266.9,358.4l-0.6,0.6c0.9,0.6,1.7,1.2,2.2,1.7l0.6-0.6
		C268.5,359.5,267.8,358.9,266.9,358.4z M266.7,361.1l-0.6,0.6c0.9,0.6,1.5,1.1,2.1,1.7l0.6-0.6
		C268.2,362.2,267.5,361.7,266.7,361.1z M268,364.4c-0.5,1.2-1.1,2.4-1.8,3.6l0.8,0.4c0.6-1.1,1.2-2.4,1.7-3.7L268,364.4z"/>
	<path d="M282.1,364.5v3.9h0.7v-4l0.6-0.1c0.4,1.7,1.6,3,3.5,4l0.4-0.7c-0.9-0.4-1.6-0.9-2.1-1.4c0.6-0.4,1.2-0.8,1.6-1.1l-0.4-0.6
		c-0.4,0.4-1,0.8-1.6,1.2c-0.3-0.4-0.6-1-0.7-1.5c0.8-0.2,1.5-0.4,2.1-0.6l-0.4-0.6c-2,0.7-4.5,1-7.4,1l0.2,0.7
		C279.9,364.7,281,364.7,282.1,364.5z M277.7,358.6v0.6h0.9v3.3c-0.4,0-0.7,0.1-1.1,0.1l0.1,0.7c1.3-0.1,2.6-0.3,3.8-0.4v0.6h0.7
		v-0.7c0.3,0,0.5-0.1,0.8-0.1V362c-0.3,0-0.5,0.1-0.8,0.1v-2.9h0.8v-0.6H277.7z M279.2,362.4v-0.8h2v0.5
		C280.6,362.3,280,362.4,279.2,362.4z M279.2,361.1v-0.6h2v0.6H279.2z M279.2,359.9v-0.7h2v0.7H279.2z M283.5,360l-0.5,0.5
		c0.6,0.4,1.2,0.8,1.7,1.2c-0.5,0.5-1.1,0.8-1.8,1l0.3,0.7c0.8-0.3,1.5-0.7,2.1-1.3c0.5,0.4,0.9,0.7,1.3,1.1l0.5-0.5
		c-0.4-0.4-0.8-0.7-1.3-1.1c0.4-0.6,0.9-1.3,1.2-2.1v-0.6h-3.9v0.7h3c-0.3,0.6-0.6,1.1-0.9,1.5C284.7,360.8,284.1,360.4,283.5,360z
		 M280.1,364.8c-0.3,0.3-0.7,0.5-1,0.7c-0.4,0.2-0.9,0.4-1.5,0.5l0.4,0.6c0.6-0.2,1.2-0.4,1.6-0.7c0.4-0.2,0.7-0.5,1.1-0.8
		L280.1,364.8z M281,366c-0.4,0.4-0.9,0.7-1.4,0.9c-0.6,0.3-1.2,0.5-1.9,0.7l0.4,0.6c0.8-0.3,1.5-0.6,2-0.9c0.5-0.3,1-0.6,1.4-1
		L281,366z"/>
	<path d="M291.7,362.5v0.7h6.1v-0.7H291.7z M290.9,364.3v0.7h2.5c-0.8,1.3-1.4,2.1-1.9,2.3c-0.1,0-0.1,0.1-0.2,0.1l0.2,0.7
		c2.1-0.1,4.1-0.3,5.9-0.6c0.2,0.3,0.4,0.6,0.6,0.9l0.6-0.4c-0.5-0.7-1.2-1.6-2.1-2.6l-0.6,0.4c0.3,0.4,0.7,0.8,1,1.1
		c-1.4,0.2-2.9,0.4-4.4,0.5c0.5-0.5,1.1-1.3,1.8-2.4h4.3v-0.7H290.9z M297.2,359.4v1.3h-6.6v-1.3H297.2z M290.5,361.4h7.4v-2.8h-8.2
		v3.7c0,2.3-0.4,4.1-1.2,5.5l0.6,0.5c0.9-1.7,1.4-3.7,1.4-6.1V361.4z"/>
	<path class="st2" d="M206,402.7h101.3v-18.8H206V402.7z"/>
	<path class="st1" d="M206,383.9h101.3v18.8H206V383.9z"/>
	<path d="M225.6,391.1v-1h5.2v0.8c-0.5,0.5-1,1.3-1.5,2.2c-0.5,0.9-0.9,1.8-1.2,2.8c-0.2,0.7-0.3,1.4-0.4,2.2h-1
		c0-0.6,0.1-1.4,0.4-2.3c0.2-0.9,0.6-1.8,1-2.6c0.5-0.8,0.9-1.5,1.4-2.1H225.6z"/>
	<g>
		<defs>
			<rect id="SVGID_3_" x="234.7" y="392.2" width="5.9" height="5.9"/>
		</defs>
		<clipPath id="SVGID_4_">
			<use xlink:href="#SVGID_3_"  style="overflow:visible;"/>
		</clipPath>
		<g class="st7">
			<path d="M238,395.2l2.2-2.2c0.1-0.1,0.2-0.2,0.2-0.2c0-0.1-0.1-0.2-0.2-0.2c-0.1,0-0.1,0-0.2,0.2l-2.2,2.2l-2.2-2.2
				c-0.1-0.1-0.2-0.2-0.2-0.2c-0.1,0-0.2,0.1-0.2,0.2c0,0.1,0.1,0.1,0.2,0.2l2.2,2.2l-2.2,2.2c-0.1,0.1-0.2,0.2-0.2,0.2
				c0,0.1,0.1,0.2,0.2,0.2c0.1,0,0.1,0,0.2-0.2l2.2-2.2l2.2,2.2c0.1,0.1,0.2,0.2,0.2,0.2c0.1,0,0.2-0.1,0.2-0.2c0-0.1,0-0.1-0.2-0.2
				L238,395.2z"/>
			<path d="M238,395.2l2.2-2.2c0.1-0.1,0.2-0.2,0.2-0.2c0-0.1-0.1-0.2-0.2-0.2c-0.1,0-0.1,0-0.2,0.2l-2.2,2.2l-2.2-2.2
				c-0.1-0.1-0.2-0.2-0.2-0.2c-0.1,0-0.2,0.1-0.2,0.2c0,0.1,0.1,0.1,0.2,0.2l2.2,2.2l-2.2,2.2c-0.1,0.1-0.2,0.2-0.2,0.2
				c0,0.1,0.1,0.2,0.2,0.2c0.1,0,0.1,0,0.2-0.2l2.2-2.2l2.2,2.2c0.1,0.1,0.2,0.2,0.2,0.2c0.1,0,0.2-0.1,0.2-0.2c0-0.1,0-0.1-0.2-0.2
				L238,395.2z"/>
		</g>
	</g>
	<path d="M245.4,391.1v-1h5.2v0.8c-0.5,0.5-1,1.3-1.5,2.2c-0.5,0.9-0.9,1.8-1.2,2.8c-0.2,0.7-0.3,1.4-0.4,2.2h-1
		c0-0.6,0.1-1.4,0.4-2.3c0.2-0.9,0.6-1.8,1-2.6c0.5-0.8,0.9-1.5,1.4-2.1H245.4z"/>
	<path d="M257.2,389l-0.7,0.3c0.3,0.4,0.6,1,0.9,1.6l0.7-0.3C257.9,390,257.6,389.5,257.2,389z M262.8,389c-0.3,0.6-0.6,1.1-1,1.5
		l0.6,0.4c0.4-0.4,0.8-1,1.1-1.6L262.8,389z M255.7,390.9v0.7h3.3c-0.2,0.4-0.4,0.8-0.7,1.1h-3.2v0.7h2.7c-0.8,0.9-1.8,1.6-3,2.1
		l0.4,0.7c0.7-0.4,1.4-0.8,2-1.3v3.1c0,0.6,0.3,0.9,1,0.9h4.2c0.6,0,1-0.1,1.2-0.3c0.2-0.2,0.4-0.8,0.5-1.6l-0.8-0.3
		c-0.1,0.6-0.2,0.9-0.3,1.2c-0.1,0.2-0.4,0.3-0.9,0.3h-3.6c-0.4,0-0.5-0.1-0.5-0.4v-2.5h3.6v0.8c0,0.2-0.2,0.4-0.4,0.4
		c-0.5,0-1,0-1.5,0l0.2,0.7c0.5,0,1.1,0,1.7,0c0.6,0,0.9-0.3,0.9-0.8v-1.5c0.6,0.5,1.3,0.9,2.1,1.3l0.5-0.7c-1.4-0.6-2.4-1.3-3-2.1
		h2.7v-0.7h-5.5c0.2-0.4,0.4-0.7,0.6-1.1h4.3v-0.7h-4c0.2-0.6,0.4-1.3,0.5-2l-0.8-0.1c-0.1,0.7-0.3,1.4-0.5,2.1H255.7z M258.8,393.5
		h2.5c0.3,0.4,0.6,0.8,1,1.1h-4.5C258.1,394.3,258.5,393.9,258.8,393.5z"/>
	<path d="M266.4,390.6c0.5-0.1,1.1-0.2,1.5-0.3v1.6h-1.7v0.8h1.6c-0.4,1.3-1.1,2.5-2,3.5l0.3,0.8c0.7-0.9,1.2-1.9,1.7-3v5.1h0.8V394
		c0.3,0.4,0.7,1.1,1.2,1.9l0.4-0.7c-0.6-0.7-1.1-1.3-1.6-1.9v-0.6h1.4v-0.8h-1.4v-1.8c0.5-0.1,0.9-0.2,1.3-0.4l-0.3-0.8
		c-1,0.4-2.2,0.7-3.5,0.8L266.4,390.6z M270.8,389.5v5.2h4.9v-5.2H270.8z M274.8,394h-3.2v-3.7h3.2V394z M271.7,395.5
		c-0.5,1.3-1.1,2.3-1.9,3.2l0.7,0.5c0.7-1,1.4-2.1,1.9-3.4L271.7,395.5z M274.5,395.4l-0.6,0.4c0.8,1.2,1.4,2.3,1.9,3.3l0.7-0.5
		C276,397.8,275.3,396.7,274.5,395.4z"/>
	<path d="M280.5,393.2v0.7h6.1v-0.7H280.5z M279.6,395v0.7h2.5c-0.8,1.3-1.4,2.1-1.9,2.3c-0.1,0-0.1,0.1-0.2,0.1l0.2,0.7
		c2.1-0.1,4.1-0.3,5.9-0.6c0.2,0.3,0.4,0.6,0.6,0.9l0.6-0.4c-0.5-0.7-1.2-1.6-2.1-2.6l-0.6,0.4c0.3,0.4,0.7,0.8,1,1.1
		c-1.4,0.2-2.9,0.4-4.4,0.5c0.5-0.5,1.1-1.3,1.8-2.4h4.3V395H279.6z M285.9,390.1v1.3h-6.6v-1.3H285.9z M279.3,392.1h7.4v-2.8h-8.2
		v3.7c0,2.3-0.4,4.1-1.2,5.5l0.6,0.5c0.9-1.7,1.4-3.7,1.4-6.1V392.1z"/>
	<path class="st1" d="M206,322.5h101.3v18.8H206V322.5z"/>
	<path d="M229.3,336.6h-1v-6.3c-0.2,0.2-0.5,0.5-0.9,0.7c-0.4,0.2-0.7,0.4-1,0.5v-1c0.5-0.2,1-0.6,1.4-0.9c0.4-0.4,0.7-0.7,0.9-1.1
		h0.6V336.6z"/>
	<g>
		<defs>
			<rect id="SVGID_5_" x="234.7" y="330.8" width="5.9" height="5.7"/>
		</defs>
		<clipPath id="SVGID_6_">
			<use xlink:href="#SVGID_5_"  style="overflow:visible;"/>
		</clipPath>
		<g class="st8">
			<path d="M238,333.5l2.2-2.2c0.1-0.1,0.2-0.2,0.2-0.2c0-0.1-0.1-0.2-0.2-0.2c-0.1,0-0.1,0-0.2,0.2l-2.2,2.2l-2.2-2.2
				c-0.1-0.1-0.2-0.2-0.2-0.2c-0.1,0-0.2,0.1-0.2,0.2c0,0.1,0.1,0.1,0.2,0.2l2.2,2.2l-2.2,2.2c-0.1,0.1-0.2,0.2-0.2,0.2
				c0,0.1,0.1,0.2,0.2,0.2c0.1,0,0.1,0,0.2-0.2l2.2-2.2l2.2,2.2c0.1,0.1,0.2,0.2,0.2,0.2c0.1,0,0.2-0.1,0.2-0.2c0-0.1,0-0.1-0.2-0.2
				L238,333.5z"/>
			<path d="M238,333.5l2.2-2.2c0.1-0.1,0.2-0.2,0.2-0.2c0-0.1-0.1-0.2-0.2-0.2c-0.1,0-0.1,0-0.2,0.2l-2.2,2.2l-2.2-2.2
				c-0.1-0.1-0.2-0.2-0.2-0.2c-0.1,0-0.2,0.1-0.2,0.2c0,0.1,0.1,0.1,0.2,0.2l2.2,2.2l-2.2,2.2c-0.1,0.1-0.2,0.2-0.2,0.2
				c0,0.1,0.1,0.2,0.2,0.2c0.1,0,0.1,0,0.2-0.2l2.2-2.2l2.2,2.2c0.1,0.1,0.2,0.2,0.2,0.2c0.1,0,0.2-0.1,0.2-0.2c0-0.1,0-0.1-0.2-0.2
				L238,333.5z"/>
		</g>
	</g>
	<path d="M249.1,336.6h-1v-6.3c-0.2,0.2-0.5,0.5-0.9,0.7c-0.4,0.2-0.7,0.4-1,0.5v-1c0.5-0.2,1-0.6,1.4-0.9c0.4-0.4,0.7-0.7,0.9-1.1
		h0.6V336.6z"/>
	<path d="M257.2,327.6l-0.7,0.3c0.3,0.4,0.6,1,0.9,1.6l0.7-0.3C257.9,328.6,257.6,328.1,257.2,327.6z M262.8,327.6
		c-0.3,0.6-0.6,1.1-1,1.5l0.6,0.4c0.4-0.4,0.8-1,1.1-1.6L262.8,327.6z M255.7,329.5v0.7h3.3c-0.2,0.4-0.4,0.8-0.7,1.1h-3.2v0.7h2.7
		c-0.8,0.9-1.8,1.6-3,2.1l0.4,0.7c0.7-0.4,1.4-0.8,2-1.3v3.1c0,0.6,0.3,0.9,1,0.9h4.2c0.6,0,1-0.1,1.2-0.3c0.2-0.2,0.4-0.8,0.5-1.6
		l-0.8-0.3c-0.1,0.6-0.2,0.9-0.3,1.2c-0.1,0.2-0.4,0.3-0.9,0.3h-3.6c-0.4,0-0.5-0.1-0.5-0.4v-2.5h3.6v0.8c0,0.2-0.2,0.4-0.4,0.4
		c-0.5,0-1,0-1.5,0l0.2,0.7c0.5,0,1.1,0,1.7,0c0.6,0,0.9-0.3,0.9-0.8v-1.5c0.6,0.5,1.3,0.9,2.1,1.3l0.5-0.7c-1.4-0.6-2.4-1.3-3-2.1
		h2.7v-0.7h-5.5c0.2-0.4,0.4-0.7,0.6-1.1h4.3v-0.7h-4c0.2-0.6,0.4-1.3,0.5-2l-0.8-0.1c-0.1,0.7-0.3,1.4-0.5,2.1H255.7z M258.8,332.1
		h2.5c0.3,0.4,0.6,0.8,1,1.1h-4.5C258.1,332.9,258.5,332.5,258.8,332.1z"/>
	<path d="M266.4,329.2c0.5-0.1,1.1-0.2,1.5-0.3v1.6h-1.7v0.8h1.6c-0.4,1.3-1.1,2.5-2,3.5l0.3,0.8c0.7-0.9,1.2-1.9,1.7-3v5.1h0.8
		v-5.1c0.3,0.4,0.7,1.1,1.2,1.9l0.4-0.7c-0.6-0.7-1.1-1.3-1.6-1.9v-0.6h1.4v-0.8h-1.4v-1.8c0.5-0.1,0.9-0.2,1.3-0.4l-0.3-0.8
		c-1,0.4-2.2,0.7-3.5,0.8L266.4,329.2z M270.8,328.1v5.2h4.9v-5.2H270.8z M274.8,332.6h-3.2v-3.7h3.2V332.6z M271.7,334.1
		c-0.5,1.3-1.1,2.3-1.9,3.2l0.7,0.5c0.7-1,1.4-2.1,1.9-3.4L271.7,334.1z M274.5,334l-0.6,0.4c0.8,1.2,1.4,2.3,1.9,3.3l0.7-0.5
		C276,336.4,275.3,335.3,274.5,334z"/>
	<path d="M280.5,331.8v0.7h6.1v-0.7H280.5z M279.6,333.6v0.7h2.5c-0.8,1.3-1.4,2.1-1.9,2.3c-0.1,0-0.1,0.1-0.2,0.1l0.2,0.7
		c2.1-0.1,4.1-0.3,5.9-0.6c0.2,0.3,0.4,0.6,0.6,0.9l0.6-0.4c-0.5-0.7-1.2-1.6-2.1-2.6l-0.6,0.4c0.3,0.4,0.7,0.8,1,1.1
		c-1.4,0.2-2.9,0.4-4.4,0.5c0.5-0.5,1.1-1.3,1.8-2.4h4.3v-0.7H279.6z M285.9,328.6v1.3h-6.6v-1.3H285.9z M279.3,330.7h7.4v-2.8h-8.2
		v3.7c0,2.3-0.4,4.1-1.2,5.5l0.6,0.5c0.9-1.7,1.4-3.7,1.4-6.1V330.7z"/>
	<path class="st2" d="M206,310.6h101.3v-18.8H206V310.6z"/>
	<path class="st1" d="M206,291.8h101.3v18.8H206V291.8z"/>
	<path d="M225.6,303.8l1-0.1c0.1,0.6,0.3,1,0.6,1.2c0.3,0.3,0.6,0.4,1,0.4c0.5,0,0.8-0.2,1.2-0.5c0.3-0.3,0.5-0.7,0.5-1.2
		c0-0.5-0.2-0.8-0.4-1.1c-0.3-0.3-0.7-0.4-1.1-0.4c-0.2,0-0.4,0-0.7,0.1l0.1-0.9c0.1,0,0.1,0,0.2,0c0.4,0,0.8-0.1,1.1-0.3
		c0.3-0.2,0.5-0.6,0.5-1c0-0.4-0.1-0.7-0.4-0.9c-0.3-0.2-0.6-0.4-1-0.4c-0.4,0-0.7,0.1-1,0.4c-0.3,0.2-0.4,0.6-0.5,1.1l-1-0.2
		c0.1-0.7,0.4-1.2,0.8-1.5c0.4-0.4,1-0.5,1.6-0.5c0.4,0,0.8,0.1,1.2,0.3c0.4,0.2,0.7,0.4,0.9,0.8c0.2,0.3,0.3,0.7,0.3,1
		c0,0.4-0.1,0.7-0.3,1c-0.2,0.3-0.5,0.5-0.8,0.7c0.5,0.1,0.8,0.3,1.1,0.7c0.3,0.3,0.4,0.8,0.4,1.3c0,0.7-0.3,1.3-0.8,1.8
		c-0.5,0.5-1.2,0.7-1.9,0.7c-0.7,0-1.3-0.2-1.8-0.6C225.9,305,225.6,304.5,225.6,303.8z"/>
	<g>
		<defs>
			<rect id="SVGID_7_" x="234.7" y="299.8" width="5.9" height="5.7"/>
		</defs>
		<clipPath id="SVGID_8_">
			<use xlink:href="#SVGID_7_"  style="overflow:visible;"/>
		</clipPath>
		<g class="st9">
			<path d="M238,302.8l2.2-2.2c0.1-0.1,0.2-0.2,0.2-0.2c0-0.1-0.1-0.2-0.2-0.2c-0.1,0-0.1,0-0.2,0.2l-2.2,2.2l-2.2-2.2
				c-0.1-0.1-0.2-0.2-0.2-0.2c-0.1,0-0.2,0.1-0.2,0.2c0,0.1,0.1,0.1,0.2,0.2l2.2,2.2l-2.2,2.2c-0.1,0.1-0.2,0.2-0.2,0.2
				c0,0.1,0.1,0.2,0.2,0.2c0.1,0,0.1,0,0.2-0.2l2.2-2.2l2.2,2.2c0.1,0.1,0.2,0.2,0.2,0.2c0.1,0,0.2-0.1,0.2-0.2c0-0.1,0-0.1-0.2-0.2
				L238,302.8z"/>
			<path d="M238,302.8l2.2-2.2c0.1-0.1,0.2-0.2,0.2-0.2c0-0.1-0.1-0.2-0.2-0.2c-0.1,0-0.1,0-0.2,0.2l-2.2,2.2l-2.2-2.2
				c-0.1-0.1-0.2-0.2-0.2-0.2c-0.1,0-0.2,0.1-0.2,0.2c0,0.1,0.1,0.1,0.2,0.2l2.2,2.2l-2.2,2.2c-0.1,0.1-0.2,0.2-0.2,0.2
				c0,0.1,0.1,0.2,0.2,0.2c0.1,0,0.1,0,0.2-0.2l2.2-2.2l2.2,2.2c0.1,0.1,0.2,0.2,0.2,0.2c0.1,0,0.2-0.1,0.2-0.2c0-0.1,0-0.1-0.2-0.2
				L238,302.8z"/>
		</g>
	</g>
	<path d="M245.4,303.8l1-0.1c0.1,0.6,0.3,1,0.6,1.2c0.3,0.3,0.6,0.4,1,0.4c0.5,0,0.8-0.2,1.2-0.5c0.3-0.3,0.5-0.7,0.5-1.2
		c0-0.5-0.1-0.8-0.4-1.1c-0.3-0.3-0.7-0.4-1.1-0.4c-0.2,0-0.4,0-0.7,0.1l0.1-0.9c0.1,0,0.1,0,0.2,0c0.4,0,0.8-0.1,1.1-0.3
		c0.3-0.2,0.5-0.6,0.5-1c0-0.4-0.1-0.7-0.4-0.9s-0.6-0.4-1-0.4c-0.4,0-0.7,0.1-1,0.4c-0.2,0.2-0.4,0.6-0.5,1.1l-1-0.2
		c0.1-0.7,0.4-1.2,0.8-1.5c0.4-0.4,1-0.5,1.6-0.5c0.4,0,0.8,0.1,1.2,0.3c0.4,0.2,0.7,0.4,0.9,0.8c0.2,0.3,0.3,0.7,0.3,1
		c0,0.4-0.1,0.7-0.3,1c-0.2,0.3-0.5,0.5-0.8,0.7c0.5,0.1,0.9,0.3,1.1,0.7c0.3,0.3,0.4,0.8,0.4,1.3c0,0.7-0.3,1.3-0.8,1.8
		c-0.5,0.5-1.2,0.7-1.9,0.7c-0.7,0-1.3-0.2-1.8-0.6C245.7,305,245.5,304.5,245.4,303.8z"/>
	<path d="M257.2,296.9l-0.7,0.3c0.3,0.4,0.6,1,0.9,1.6l0.7-0.3C257.9,297.9,257.6,297.4,257.2,296.9z M262.8,296.9
		c-0.3,0.6-0.6,1.1-1,1.5l0.6,0.4c0.4-0.4,0.8-1,1.1-1.6L262.8,296.9z M255.7,298.8v0.7h3.3c-0.2,0.4-0.4,0.8-0.7,1.1h-3.2v0.7h2.7
		c-0.8,0.9-1.8,1.6-3,2.1l0.4,0.7c0.7-0.4,1.4-0.8,2-1.3v3.1c0,0.6,0.3,0.9,1,0.9h4.2c0.6,0,1-0.1,1.2-0.3c0.2-0.2,0.4-0.8,0.5-1.6
		l-0.8-0.3c-0.1,0.6-0.2,0.9-0.3,1.2c-0.1,0.2-0.4,0.3-0.9,0.3h-3.6c-0.4,0-0.5-0.1-0.5-0.4v-2.5h3.6v0.8c0,0.2-0.2,0.4-0.4,0.4
		c-0.5,0-1,0-1.5,0l0.2,0.7c0.5,0,1.1,0,1.7,0c0.6,0,0.9-0.3,0.9-0.8v-1.5c0.6,0.5,1.3,0.9,2.1,1.3l0.5-0.7c-1.4-0.6-2.4-1.3-3-2.1
		h2.7v-0.7h-5.5c0.2-0.4,0.4-0.7,0.6-1.1h4.3v-0.7h-4c0.2-0.6,0.4-1.3,0.5-2l-0.8-0.1c-0.1,0.7-0.3,1.4-0.5,2.1H255.7z M258.8,301.4
		h2.5c0.3,0.4,0.6,0.8,1,1.1h-4.5C258.1,302.2,258.5,301.8,258.8,301.4z"/>
	<path d="M266.4,298.5c0.5-0.1,1.1-0.2,1.5-0.3v1.6h-1.7v0.8h1.6c-0.4,1.3-1.1,2.5-2,3.5l0.3,0.8c0.7-0.9,1.2-1.9,1.7-3v5.1h0.8
		v-5.1c0.3,0.4,0.7,1.1,1.2,1.9l0.4-0.7c-0.6-0.7-1.1-1.3-1.6-1.9v-0.6h1.4v-0.8h-1.4V298c0.5-0.1,0.9-0.2,1.3-0.4l-0.3-0.8
		c-1,0.4-2.2,0.7-3.5,0.8L266.4,298.5z M270.8,297.4v5.2h4.9v-5.2H270.8z M274.8,301.9h-3.2v-3.7h3.2V301.9z M271.7,303.4
		c-0.5,1.3-1.1,2.3-1.9,3.2l0.7,0.5c0.7-1,1.4-2.1,1.9-3.4L271.7,303.4z M274.5,303.3l-0.6,0.4c0.8,1.2,1.4,2.3,1.9,3.3l0.7-0.5
		C276,305.7,275.3,304.6,274.5,303.3z"/>
	<path d="M280.5,301v0.7h6.1V301H280.5z M279.6,302.9v0.7h2.5c-0.8,1.3-1.4,2.1-1.9,2.3c-0.1,0-0.1,0.1-0.2,0.1l0.2,0.7
		c2.1-0.1,4.1-0.3,5.9-0.6c0.2,0.3,0.4,0.6,0.6,0.9l0.6-0.4c-0.5-0.7-1.2-1.6-2.1-2.6l-0.6,0.4c0.3,0.4,0.7,0.8,1,1.1
		c-1.4,0.2-2.9,0.4-4.4,0.5c0.5-0.5,1.1-1.3,1.8-2.4h4.3v-0.7H279.6z M285.9,297.9v1.3h-6.6v-1.3H285.9z M279.3,300h7.4v-2.8h-8.2
		v3.7c0,2.3-0.4,4.1-1.2,5.5l0.6,0.5c0.9-1.7,1.4-3.7,1.4-6.1V300z"/>
	<path class="st0" d="M206,279.9h101.3v-18.8H206V279.9z"/>
	<path class="st1" d="M206,261.1h101.3v18.8H206V261.1z"/>
	<path d="M214.3,273.1l1-0.1c0.1,0.6,0.3,1,0.6,1.2c0.3,0.2,0.6,0.4,1,0.4c0.5,0,0.8-0.2,1.2-0.5c0.3-0.3,0.5-0.7,0.5-1.2
		c0-0.5-0.2-0.8-0.4-1.1c-0.3-0.3-0.7-0.4-1.1-0.4c-0.2,0-0.4,0-0.7,0.1l0.1-0.9c0.1,0,0.1,0,0.2,0c0.4,0,0.8-0.1,1.1-0.3
		c0.3-0.2,0.5-0.6,0.5-1c0-0.4-0.1-0.7-0.4-0.9c-0.3-0.2-0.6-0.4-1-0.4c-0.4,0-0.7,0.1-1,0.4c-0.3,0.2-0.4,0.6-0.5,1.1l-1-0.2
		c0.1-0.7,0.4-1.2,0.8-1.5c0.4-0.4,1-0.5,1.6-0.5c0.4,0,0.8,0.1,1.2,0.3c0.4,0.2,0.7,0.4,0.9,0.8s0.3,0.7,0.3,1c0,0.4-0.1,0.7-0.3,1
		c-0.2,0.3-0.5,0.5-0.8,0.7c0.5,0.1,0.8,0.3,1.1,0.7c0.3,0.3,0.4,0.8,0.4,1.3c0,0.7-0.3,1.3-0.8,1.8c-0.5,0.5-1.2,0.7-1.9,0.7
		c-0.7,0-1.3-0.2-1.8-0.6S214.4,273.8,214.3,273.1z"/>
	<g>
		<defs>
			<rect id="SVGID_9_" x="223.5" y="269.1" width="5.9" height="5.9"/>
		</defs>
		<clipPath id="SVGID_10_">
			<use xlink:href="#SVGID_9_"  style="overflow:visible;"/>
		</clipPath>
		<g class="st10">
			<path d="M226.7,272.1l2.2-2.2c0.1-0.1,0.2-0.2,0.2-0.2c0-0.1-0.1-0.2-0.2-0.2c-0.1,0-0.1,0-0.2,0.2l-2.2,2.2l-2.2-2.2
				c-0.1-0.1-0.2-0.2-0.2-0.2c-0.1,0-0.2,0.1-0.2,0.2c0,0.1,0.1,0.1,0.2,0.2l2.2,2.2l-2.2,2.2c-0.1,0.1-0.2,0.2-0.2,0.2
				c0,0.1,0.1,0.2,0.2,0.2c0.1,0,0.1,0,0.2-0.2l2.2-2.2l2.2,2.2c0.1,0.1,0.2,0.2,0.2,0.2c0.1,0,0.2-0.1,0.2-0.2c0-0.1,0-0.1-0.2-0.2
				L226.7,272.1z"/>
			<path d="M226.7,272.1l2.2-2.2c0.1-0.1,0.2-0.2,0.2-0.2c0-0.1-0.1-0.2-0.2-0.2c-0.1,0-0.1,0-0.2,0.2l-2.2,2.2l-2.2-2.2
				c-0.1-0.1-0.2-0.2-0.2-0.2c-0.1,0-0.2,0.1-0.2,0.2c0,0.1,0.1,0.1,0.2,0.2l2.2,2.2l-2.2,2.2c-0.1,0.1-0.2,0.2-0.2,0.2
				c0,0.1,0.1,0.2,0.2,0.2c0.1,0,0.1,0,0.2-0.2l2.2-2.2l2.2,2.2c0.1,0.1,0.2,0.2,0.2,0.2c0.1,0,0.2-0.1,0.2-0.2c0-0.1,0-0.1-0.2-0.2
				L226.7,272.1z"/>
		</g>
	</g>
	<path d="M234.1,273.1l1-0.1c0.1,0.6,0.3,1,0.6,1.2c0.3,0.2,0.6,0.4,1,0.4c0.5,0,0.8-0.2,1.2-0.5c0.3-0.3,0.5-0.7,0.5-1.2
		c0-0.5-0.1-0.8-0.4-1.1c-0.3-0.3-0.7-0.4-1.1-0.4c-0.2,0-0.4,0-0.7,0.1l0.1-0.9c0.1,0,0.1,0,0.2,0c0.4,0,0.8-0.1,1.1-0.3
		s0.5-0.6,0.5-1c0-0.4-0.1-0.7-0.4-0.9s-0.6-0.4-1-0.4c-0.4,0-0.7,0.1-1,0.4c-0.2,0.2-0.4,0.6-0.5,1.1l-1-0.2
		c0.1-0.7,0.4-1.2,0.8-1.5c0.4-0.4,1-0.5,1.6-0.5c0.4,0,0.8,0.1,1.2,0.3c0.4,0.2,0.7,0.4,0.9,0.8s0.3,0.7,0.3,1c0,0.4-0.1,0.7-0.3,1
		c-0.2,0.3-0.5,0.5-0.8,0.7c0.5,0.1,0.9,0.3,1.1,0.7c0.3,0.3,0.4,0.8,0.4,1.3c0,0.7-0.3,1.3-0.8,1.8c-0.5,0.5-1.2,0.7-1.9,0.7
		c-0.7,0-1.3-0.2-1.8-0.6S234.2,273.8,234.1,273.1z"/>
	<path d="M243.7,270.4v0.6h1.1v3.9l-1.1,0l0.1,0.7c1.6-0.1,2.9-0.2,4-0.3v1h0.8v-1.1c0.2,0,0.4-0.1,0.6-0.1v-0.6
		c-0.2,0-0.4,0.1-0.6,0.1v-3.6h5.1v-0.6H243.7z M245.5,274.9v-1h2.3v0.8C247.1,274.8,246.4,274.9,245.5,274.9z M245.5,273.4v-0.8
		h2.3v0.8H245.5z M245.5,271.9v-0.9h2.3v0.9H245.5z M245.2,266.4v3.2h7.1v-3.2H245.2z M251.5,269.1h-5.6v-0.8h5.6V269.1z
		 M245.9,267.8V267h5.6v0.7H245.9z M249.5,272.5c0.2,0.8,0.6,1.6,1.3,2.2c-0.5,0.4-1.1,0.7-1.7,1l0.4,0.6c0.7-0.3,1.4-0.7,1.9-1.2
		c0.5,0.4,1.1,0.8,1.9,1.2l0.4-0.7c-0.7-0.3-1.3-0.6-1.8-1c0.5-0.6,0.9-1.4,1.1-2.2v-0.6h-3.8v0.7H249.5z M251.3,274.2
		c-0.5-0.5-0.9-1.1-1.1-1.7h2.1C252.1,273.1,251.8,273.7,251.3,274.2z"/>
	<path d="M255,269v0.8h4.2c-0.6,2.8-2.1,4.7-4.5,5.9l0.5,0.7c2.4-1.3,3.9-3.2,4.6-6c0.9,2.6,2.4,4.5,4.7,5.9l0.5-0.6
		c-2.3-1.4-3.9-3.3-4.6-5.9h4.4V269h-4.7c0.1-0.7,0.1-1.4,0.1-2.2V266h-0.8v0.9c0,0.7-0.1,1.4-0.2,2H255z"/>
	<path d="M270.7,275.2v-7.9h5.4v-0.8h-6.2v9.5h6.3v-0.8H270.7z M266.9,266.2l-0.6,0.6c0.9,0.6,1.7,1.2,2.2,1.7l0.6-0.6
		C268.5,267.4,267.8,266.8,266.9,266.2z M266.7,269l-0.6,0.6c0.9,0.6,1.5,1.1,2.1,1.7l0.6-0.6C268.2,270.1,267.5,269.5,266.7,269z
		 M268,272.3c-0.5,1.2-1.1,2.4-1.8,3.6l0.8,0.4c0.6-1.1,1.2-2.4,1.7-3.7L268,272.3z"/>
	<path d="M282.1,272.4v3.9h0.7v-4l0.6-0.1c0.4,1.7,1.6,3,3.5,4l0.4-0.7c-0.9-0.4-1.6-0.9-2.1-1.4c0.6-0.4,1.2-0.8,1.6-1.1l-0.4-0.6
		c-0.4,0.4-1,0.8-1.6,1.2c-0.3-0.4-0.6-1-0.7-1.5c0.8-0.2,1.5-0.4,2.1-0.6l-0.4-0.6c-2,0.7-4.5,1-7.4,1l0.2,0.7
		C279.9,272.6,281,272.6,282.1,272.4z M277.7,266.5v0.6h0.9v3.3c-0.4,0-0.7,0.1-1.1,0.1l0.1,0.7c1.3-0.1,2.6-0.3,3.8-0.4v0.6h0.7
		v-0.7c0.3,0,0.5-0.1,0.8-0.1v-0.6c-0.3,0-0.5,0.1-0.8,0.1v-2.9h0.8v-0.6H277.7z M279.2,270.3v-0.8h2v0.5
		C280.6,270.2,280,270.2,279.2,270.3z M279.2,269v-0.6h2v0.6H279.2z M279.2,267.8v-0.7h2v0.7H279.2z M283.5,267.9l-0.5,0.5
		c0.6,0.4,1.2,0.8,1.7,1.2c-0.5,0.5-1.1,0.8-1.8,1l0.3,0.7c0.8-0.3,1.5-0.7,2.1-1.3c0.5,0.4,0.9,0.7,1.3,1.1l0.5-0.5
		c-0.4-0.4-0.8-0.7-1.3-1.1c0.4-0.6,0.9-1.3,1.2-2.1v-0.6h-3.9v0.7h3c-0.3,0.6-0.6,1.1-0.9,1.5C284.7,268.6,284.1,268.3,283.5,267.9
		z M280.1,272.7c-0.3,0.3-0.7,0.5-1,0.7c-0.4,0.2-0.9,0.4-1.5,0.5l0.4,0.6c0.6-0.2,1.2-0.4,1.6-0.7c0.4-0.2,0.7-0.5,1.1-0.8
		L280.1,272.7z M281,273.9c-0.4,0.4-0.9,0.7-1.4,0.9c-0.6,0.3-1.2,0.5-1.9,0.7l0.4,0.6c0.8-0.3,1.5-0.6,2-0.9c0.5-0.3,1-0.6,1.4-1
		L281,273.9z"/>
	<path d="M291.7,270.3v0.7h6.1v-0.7H291.7z M290.9,272.2v0.7h2.5c-0.8,1.3-1.4,2.1-1.9,2.3c-0.1,0-0.1,0.1-0.2,0.1l0.2,0.7
		c2.1-0.1,4.1-0.3,5.9-0.6c0.2,0.3,0.4,0.6,0.6,0.9l0.6-0.4c-0.5-0.7-1.2-1.6-2.1-2.6l-0.6,0.4c0.3,0.4,0.7,0.8,1,1.1
		c-1.4,0.2-2.9,0.4-4.4,0.5c0.5-0.5,1.1-1.3,1.8-2.4h4.3v-0.7H290.9z M297.2,267.2v1.3h-6.6v-1.3H297.2z M290.5,269.3h7.4v-2.8h-8.2
		v3.7c0,2.3-0.4,4.1-1.2,5.5l0.6,0.5c0.9-1.7,1.4-3.7,1.4-6.1V269.3z"/>
	<path class="st0" d="M206,205h101.3v-18.8H206V205z"/>
	<path class="st1" d="M206,186.3h101.3V205H206V186.3z"/>
	<path d="M214.3,198.3l1-0.1c0.1,0.6,0.3,1,0.6,1.2c0.3,0.3,0.6,0.4,1,0.4c0.5,0,0.8-0.2,1.2-0.5c0.3-0.3,0.5-0.7,0.5-1.2
		c0-0.5-0.2-0.8-0.4-1.1c-0.3-0.3-0.7-0.4-1.1-0.4c-0.2,0-0.4,0-0.7,0.1l0.1-0.9c0.1,0,0.1,0,0.2,0c0.4,0,0.8-0.1,1.1-0.3
		c0.3-0.2,0.5-0.6,0.5-1c0-0.4-0.1-0.7-0.4-0.9c-0.3-0.2-0.6-0.4-1-0.4c-0.4,0-0.7,0.1-1,0.4c-0.3,0.2-0.4,0.6-0.5,1.1l-1-0.2
		c0.1-0.7,0.4-1.2,0.8-1.5c0.4-0.4,1-0.5,1.6-0.5c0.4,0,0.8,0.1,1.2,0.3c0.4,0.2,0.7,0.4,0.9,0.8c0.2,0.3,0.3,0.7,0.3,1
		c0,0.4-0.1,0.7-0.3,1c-0.2,0.3-0.5,0.5-0.8,0.7c0.5,0.1,0.8,0.3,1.1,0.7c0.3,0.3,0.4,0.8,0.4,1.3c0,0.7-0.3,1.3-0.8,1.8
		c-0.5,0.5-1.2,0.7-1.9,0.7c-0.7,0-1.3-0.2-1.8-0.6C214.7,199.5,214.4,198.9,214.3,198.3z"/>
	<g>
		<defs>
			<rect id="SVGID_11_" x="223.5" y="194.5" width="5.9" height="5.7"/>
		</defs>
		<clipPath id="SVGID_12_">
			<use xlink:href="#SVGID_11_"  style="overflow:visible;"/>
		</clipPath>
		<g class="st11">
			<path d="M226.7,197.3l2.2-2.2c0.1-0.1,0.2-0.2,0.2-0.2c0-0.1-0.1-0.2-0.2-0.2c-0.1,0-0.1,0-0.2,0.2l-2.2,2.2l-2.2-2.2
				c-0.1-0.1-0.2-0.2-0.2-0.2c-0.1,0-0.2,0.1-0.2,0.2c0,0.1,0.1,0.1,0.2,0.2l2.2,2.2l-2.2,2.2c-0.1,0.1-0.2,0.2-0.2,0.2
				c0,0.1,0.1,0.2,0.2,0.2c0.1,0,0.1,0,0.2-0.2l2.2-2.2l2.2,2.2c0.1,0.1,0.2,0.2,0.2,0.2c0.1,0,0.2-0.1,0.2-0.2c0-0.1,0-0.1-0.2-0.2
				L226.7,197.3z"/>
			<path d="M226.7,197.3l2.2-2.2c0.1-0.1,0.2-0.2,0.2-0.2c0-0.1-0.1-0.2-0.2-0.2c-0.1,0-0.1,0-0.2,0.2l-2.2,2.2l-2.2-2.2
				c-0.1-0.1-0.2-0.2-0.2-0.2c-0.1,0-0.2,0.1-0.2,0.2c0,0.1,0.1,0.1,0.2,0.2l2.2,2.2l-2.2,2.2c-0.1,0.1-0.2,0.2-0.2,0.2
				c0,0.1,0.1,0.2,0.2,0.2c0.1,0,0.1,0,0.2-0.2l2.2-2.2l2.2,2.2c0.1,0.1,0.2,0.2,0.2,0.2c0.1,0,0.2-0.1,0.2-0.2c0-0.1,0-0.1-0.2-0.2
				L226.7,197.3z"/>
		</g>
	</g>
	<path d="M234.1,198.3l1-0.1c0.1,0.6,0.3,1,0.6,1.2c0.3,0.3,0.6,0.4,1,0.4c0.5,0,0.8-0.2,1.2-0.5c0.3-0.3,0.5-0.7,0.5-1.2
		c0-0.5-0.1-0.8-0.4-1.1c-0.3-0.3-0.7-0.4-1.1-0.4c-0.2,0-0.4,0-0.7,0.1l0.1-0.9c0.1,0,0.1,0,0.2,0c0.4,0,0.8-0.1,1.1-0.3
		c0.3-0.2,0.5-0.6,0.5-1c0-0.4-0.1-0.7-0.4-0.9s-0.6-0.4-1-0.4c-0.4,0-0.7,0.1-1,0.4c-0.2,0.2-0.4,0.6-0.5,1.1l-1-0.2
		c0.1-0.7,0.4-1.2,0.8-1.5c0.4-0.4,1-0.5,1.6-0.5c0.4,0,0.8,0.1,1.2,0.3c0.4,0.2,0.7,0.4,0.9,0.8c0.2,0.3,0.3,0.7,0.3,1
		c0,0.4-0.1,0.7-0.3,1c-0.2,0.3-0.5,0.5-0.8,0.7c0.5,0.1,0.9,0.3,1.1,0.7c0.3,0.3,0.4,0.8,0.4,1.3c0,0.7-0.3,1.3-0.8,1.8
		c-0.5,0.5-1.2,0.7-1.9,0.7c-0.7,0-1.3-0.2-1.8-0.6C234.5,199.5,234.2,198.9,234.1,198.3z"/>
	<path d="M243.7,195.6v0.6h1.1v3.9l-1.1,0l0.1,0.7c1.6-0.1,2.9-0.2,4-0.3v1h0.8v-1.1c0.2,0,0.4-0.1,0.6-0.1v-0.6
		c-0.2,0-0.4,0.1-0.6,0.1v-3.6h5.1v-0.6H243.7z M245.5,200.1v-1h2.3v0.8C247.1,200,246.4,200,245.5,200.1z M245.5,198.5v-0.8h2.3
		v0.8H245.5z M245.5,197.1v-0.9h2.3v0.9H245.5z M245.2,191.6v3.2h7.1v-3.2H245.2z M251.5,194.3h-5.6v-0.8h5.6V194.3z M245.9,192.9
		v-0.7h5.6v0.7H245.9z M249.5,197.7c0.2,0.8,0.6,1.6,1.3,2.2c-0.5,0.4-1.1,0.7-1.7,1l0.4,0.6c0.7-0.3,1.4-0.7,1.9-1.2
		c0.5,0.4,1.1,0.8,1.9,1.2l0.4-0.7c-0.7-0.3-1.3-0.6-1.8-1c0.5-0.6,0.9-1.4,1.1-2.2V197h-3.8v0.7H249.5z M251.3,199.4
		c-0.5-0.5-0.9-1.1-1.1-1.7h2.1C252.1,198.3,251.8,198.9,251.3,199.4z"/>
	<path d="M255,194.2v0.8h4.2c-0.6,2.8-2.1,4.7-4.5,5.9l0.5,0.7c2.4-1.3,3.9-3.2,4.6-6c0.9,2.6,2.4,4.5,4.7,5.9l0.5-0.6
		c-2.3-1.4-3.9-3.3-4.6-5.9h4.4v-0.8h-4.7c0.1-0.7,0.1-1.4,0.1-2.2v-0.7h-0.8v0.9c0,0.7-0.1,1.4-0.2,2H255z"/>
	<path d="M270.7,200.3v-7.9h5.4v-0.8h-6.2v9.5h6.3v-0.8H270.7z M266.9,191.4l-0.6,0.6c0.9,0.6,1.7,1.2,2.2,1.7l0.6-0.6
		C268.5,192.6,267.8,192,266.9,191.4z M266.7,194.2l-0.6,0.6c0.9,0.6,1.5,1.1,2.1,1.7l0.6-0.6C268.2,195.3,267.5,194.7,266.7,194.2z
		 M268,197.5c-0.5,1.2-1.1,2.4-1.8,3.6l0.8,0.4c0.6-1.1,1.2-2.4,1.7-3.7L268,197.5z"/>
	<path d="M282.1,197.6v3.9h0.7v-4l0.6-0.1c0.4,1.7,1.6,3,3.5,4l0.4-0.7c-0.9-0.4-1.6-0.9-2.1-1.4c0.6-0.4,1.2-0.8,1.6-1.1l-0.4-0.6
		c-0.4,0.4-1,0.8-1.6,1.2c-0.3-0.4-0.6-1-0.7-1.5c0.8-0.2,1.5-0.4,2.1-0.6l-0.4-0.6c-2,0.7-4.5,1-7.4,1l0.2,0.7
		C279.9,197.8,281,197.7,282.1,197.6z M277.7,191.6v0.6h0.9v3.3c-0.4,0-0.7,0.1-1.1,0.1l0.1,0.7c1.3-0.1,2.6-0.3,3.8-0.4v0.6h0.7
		v-0.7c0.3,0,0.5-0.1,0.8-0.1V195c-0.3,0-0.5,0.1-0.8,0.1v-2.9h0.8v-0.6H277.7z M279.2,195.5v-0.8h2v0.5
		C280.6,195.3,280,195.4,279.2,195.5z M279.2,194.1v-0.6h2v0.6H279.2z M279.2,192.9v-0.7h2v0.7H279.2z M283.5,193.1l-0.5,0.5
		c0.6,0.4,1.2,0.8,1.7,1.2c-0.5,0.5-1.1,0.8-1.8,1l0.3,0.7c0.8-0.3,1.5-0.7,2.1-1.3c0.5,0.4,0.9,0.7,1.3,1.1l0.5-0.5
		c-0.4-0.4-0.8-0.7-1.3-1.1c0.4-0.6,0.9-1.3,1.2-2.1V192h-3.9v0.7h3c-0.3,0.6-0.6,1.1-0.9,1.5C284.7,193.8,284.1,193.4,283.5,193.1z
		 M280.1,197.9c-0.3,0.3-0.7,0.5-1,0.7c-0.4,0.2-0.9,0.4-1.5,0.5l0.4,0.6c0.6-0.2,1.2-0.4,1.6-0.7c0.4-0.2,0.7-0.5,1.1-0.8
		L280.1,197.9z M281,199.1c-0.4,0.4-0.9,0.7-1.4,0.9c-0.6,0.3-1.2,0.5-1.9,0.7l0.4,0.6c0.8-0.3,1.5-0.6,2-0.9c0.5-0.3,1-0.6,1.4-1
		L281,199.1z"/>
	<path d="M291.7,195.5v0.7h6.1v-0.7H291.7z M290.9,197.4v0.7h2.5c-0.8,1.3-1.4,2.1-1.9,2.3c-0.1,0-0.1,0.1-0.2,0.1l0.2,0.7
		c2.1-0.1,4.1-0.3,5.9-0.6c0.2,0.3,0.4,0.6,0.6,0.9l0.6-0.4c-0.5-0.7-1.2-1.6-2.1-2.6l-0.6,0.4c0.3,0.4,0.7,0.8,1,1.1
		c-1.4,0.2-2.9,0.4-4.4,0.5c0.5-0.5,1.1-1.3,1.8-2.4h4.3v-0.7H290.9z M297.2,192.4v1.3h-6.6v-1.3H297.2z M290.5,194.4h7.4v-2.8h-8.2
		v3.7c0,2.3-0.4,4.1-1.2,5.5l0.6,0.5c0.9-1.7,1.4-3.7,1.4-6.1V194.4z"/>
	<path class="st0" d="M206,160.9h22.7v-5.3H206V160.9z"/>
	<path class="st1" d="M206,155.6h22.7v5.3H206V155.6z"/>
	<path class="st1" d="M232.2,160.1h22.7v5.3h-22.7V160.1z"/>
	<path class="st2" d="M232.2,156.4h22.7v-5.3h-22.7V156.4z"/>
	<path class="st1" d="M232.2,151.1h22.7v5.3h-22.7V151.1z"/>
	<path class="st1" d="M243.5,160.1v-0.3"/>
	<path class="st3" d="M243.5,158.8v1 M243.2,159.8l0.4-1l0.4,1"/>
	<path class="st1" d="M258.5,160.1h22.7v5.3h-22.7V160.1z"/>
	<path class="st2" d="M258.5,156.4h22.7v-5.3h-22.7V156.4z"/>
	<path class="st1" d="M258.5,151.1h22.7v5.3h-22.7V151.1z"/>
	<path class="st1" d="M269.8,160.1v-0.3"/>
	<path class="st3" d="M269.8,158.8v1 M269.4,159.8l0.4-1l0.4,1"/>
	<path class="st0" d="M284.5,165.1h22.7v-5.3h-22.7V165.1z"/>
	<path class="st1" d="M284.5,159.8h22.7v5.3h-22.7V159.8z"/>
	<path class="st1" d="M284.5,150.8h22.7v5.3h-22.7V150.8z"/>
	<path class="st1" d="M295.9,159.8v-0.3"/>
	<path class="st3" d="M295.9,158.5v1 M295.5,159.5l0.4-1l0.4,1"/>
	<path class="st0" d="M245.2,174.3h22.7V169h-22.7V174.3z"/>
	<path class="st1" d="M245.2,169h22.7v5.3h-22.7V169z"/>
	<path class="st0" d="M245.2,147.4h22.7v-5.3h-22.7V147.4z"/>
	<path class="st1" d="M245.2,142.1h22.7v5.3h-22.7V142.1z"/>
	<path class="st4" d="M260.5,169l2.6-1.8"/>
	<path class="st5" d="M263.9,166.7l-1,0.2l0.4,0.6L263.9,166.7z"/>
	<path class="st4" d="M252.7,169l-2.5-1.8"/>
	<path class="st5" d="M249.3,166.7l0.6,0.9l0.4-0.6L249.3,166.7z"/>
	<path class="st4" d="M247.4,151.1l2.6-1.8"/>
	<path class="st5" d="M250.8,148.8l-1,0.3l0.4,0.6L250.8,148.8z"/>
	<path class="st4" d="M265.9,151.1l-2.6-1.8"/>
	<path class="st5" d="M262.4,148.8l0.6,0.9l0.4-0.6L262.4,148.8z"/>
	<path class="st4" d="M267.9,172C267.9,172,267.9,172,267.9,172h21.7c2.5,0,4.7-1.5,5.7-3.6"/>
	<path class="st5" d="M295.5,167.4l-0.5,0.9l0.7,0.1L295.5,167.4z"/>
	<path class="st4" d="M245.2,172C245.2,172,245.2,172,245.2,172l-21.7,0c-3.4,0-6.3-2.8-6.3-6.3v-1.5"/>
	<path class="st5" d="M217.3,163.2l-0.4,1h0.7L217.3,163.2z"/>
	<path class="st4" d="M217.3,155.6v-4.4c0-3.5,2.8-6.3,6.3-6.3h18.3"/>
	<path class="st5" d="M242.9,144.9l-1-0.4v0.8L242.9,144.9z"/>
	<path class="st4" d="M295.8,150.8c-0.4-3.1-3-5.5-6.2-5.5h-18.3"/>
	<path class="st5" d="M270.3,145.3l1,0.4v-0.8L270.3,145.3z"/>
	<path class="st0" d="M206,86h22.7v-5.3H206V86z"/>
	<path class="st1" d="M206,80.8h22.7V86H206V80.8z"/>
	<path class="st1" d="M232.2,85.2h22.7v5.3h-22.7V85.2z"/>
	<path class="st2" d="M232.2,81.6h22.7v-5.3h-22.7V81.6z"/>
	<path class="st1" d="M232.2,76.3h22.7v5.3h-22.7V76.3z"/>
	<path class="st1" d="M243.5,85.2v-0.3"/>
	<path class="st3" d="M243.5,83.9v1 M243.2,84.9l0.4-1l0.4,1"/>
	<path class="st1" d="M258.5,85.2h22.7v5.3h-22.7V85.2z"/>
	<path class="st2" d="M258.5,81.6h22.7v-5.3h-22.7V81.6z"/>
	<path class="st1" d="M258.5,76.3h22.7v5.3h-22.7V76.3z"/>
	<path class="st1" d="M269.8,85.2v-0.3"/>
	<path class="st3" d="M269.8,83.9v1 M269.4,84.9l0.4-1l0.4,1"/>
	<path class="st0" d="M284.5,90.2h22.7V85h-22.7V90.2z"/>
	<path class="st1" d="M284.5,85h22.7v5.3h-22.7V85z"/>
	<path class="st1" d="M284.5,76h22.7v5.3h-22.7V76z"/>
	<path class="st1" d="M295.9,85v-0.3"/>
	<path class="st3" d="M295.9,83.7v1 M295.5,84.7l0.4-1l0.4,1"/>
	<path class="st0" d="M245.2,99.5h22.7v-5.3h-22.7V99.5z"/>
	<path class="st1" d="M245.2,94.2h22.7v5.3h-22.7V94.2z"/>
	<path class="st0" d="M245.2,72.6h22.7v-5.3h-22.7V72.6z"/>
	<path class="st1" d="M245.2,67.3h22.7v5.3h-22.7V67.3z"/>
	<path class="st4" d="M260.5,94.2l2.6-1.8"/>
	<path class="st5" d="M263.9,91.9l-1,0.2l0.4,0.6L263.9,91.9z"/>
	<path class="st4" d="M252.7,94.2l-2.5-1.8"/>
	<path class="st5" d="M249.3,91.9l0.6,0.9l0.4-0.6L249.3,91.9z"/>
	<path class="st4" d="M247.4,76.3l2.6-1.8"/>
	<path class="st5" d="M250.8,74l-1,0.3l0.4,0.6L250.8,74z"/>
	<path class="st4" d="M265.9,76.3l-2.6-1.8"/>
	<path class="st5" d="M262.4,73.9l0.6,0.9l0.4-0.6L262.4,73.9z"/>
	<path class="st4" d="M267.9,97.2C267.9,97.2,267.9,97.2,267.9,97.2h21.7c2.5,0,4.7-1.5,5.7-3.6"/>
	<path class="st5" d="M295.5,92.6l-0.5,0.9l0.7,0.1L295.5,92.6z"/>
	<path class="st4" d="M245.2,97.1C245.2,97.1,245.2,97.1,245.2,97.1l-21.7,0c-3.4,0-6.3-2.8-6.3-6.3v-1.5"/>
	<path class="st5" d="M217.3,88.4l-0.4,1h0.7L217.3,88.4z"/>
	<path class="st4" d="M217.3,80.8v-4.4c0-3.4,2.8-6.3,6.3-6.3h18.3"/>
	<path class="st5" d="M242.9,70.1l-1-0.4v0.8L242.9,70.1z"/>
	<path class="st4" d="M295.8,76c-0.4-3.1-3-5.5-6.2-5.5h-18.3"/>
	<path class="st5" d="M270.3,70.5l1,0.4v-0.7L270.3,70.5z"/>
	<path class="st0" d="M206,130.2h101.3v-18.8H206V130.2z"/>
	<path class="st1" d="M206,111.4h101.3v18.8H206V111.4z"/>
	<path d="M214.3,123.4l1-0.1c0.1,0.6,0.3,1,0.6,1.2c0.3,0.3,0.6,0.4,1,0.4c0.5,0,0.8-0.2,1.2-0.5c0.3-0.3,0.5-0.7,0.5-1.2
		c0-0.5-0.2-0.8-0.4-1.1c-0.3-0.3-0.7-0.4-1.1-0.4c-0.2,0-0.4,0-0.7,0.1l0.1-0.9c0.1,0,0.1,0,0.2,0c0.4,0,0.8-0.1,1.1-0.3
		c0.3-0.2,0.5-0.6,0.5-1c0-0.4-0.1-0.7-0.4-0.9c-0.3-0.2-0.6-0.4-1-0.4c-0.4,0-0.7,0.1-1,0.4c-0.3,0.2-0.4,0.6-0.5,1.1l-1-0.2
		c0.1-0.7,0.4-1.2,0.8-1.5c0.4-0.4,1-0.5,1.6-0.5c0.4,0,0.8,0.1,1.2,0.3c0.4,0.2,0.7,0.4,0.9,0.8c0.2,0.3,0.3,0.7,0.3,1
		c0,0.4-0.1,0.7-0.3,1c-0.2,0.3-0.5,0.5-0.8,0.7c0.5,0.1,0.8,0.3,1.1,0.7c0.3,0.3,0.4,0.8,0.4,1.3c0,0.7-0.3,1.3-0.8,1.8
		c-0.5,0.5-1.2,0.7-1.9,0.7c-0.7,0-1.3-0.2-1.8-0.6C214.7,124.7,214.4,124.1,214.3,123.4z"/>
	<g>
		<defs>
			<rect id="SVGID_13_" x="223.5" y="119.7" width="5.9" height="5.8"/>
		</defs>
		<clipPath id="SVGID_14_">
			<use xlink:href="#SVGID_13_"  style="overflow:visible;"/>
		</clipPath>
		<g class="st12">
			<path d="M226.7,122.7l2.2-2.2c0.1-0.1,0.2-0.2,0.2-0.2c0-0.1-0.1-0.2-0.2-0.2c-0.1,0-0.1,0-0.2,0.2l-2.2,2.2l-2.2-2.2
				c-0.1-0.1-0.2-0.2-0.2-0.2c-0.1,0-0.2,0.1-0.2,0.2c0,0.1,0.1,0.1,0.2,0.2l2.2,2.2l-2.2,2.2c-0.1,0.1-0.2,0.2-0.2,0.2
				c0,0.1,0.1,0.2,0.2,0.2c0.1,0,0.1,0,0.2-0.2l2.2-2.2l2.2,2.2c0.1,0.1,0.2,0.2,0.2,0.2c0.1,0,0.2-0.1,0.2-0.2c0-0.1,0-0.1-0.2-0.2
				L226.7,122.7z"/>
			<path d="M226.7,122.7l2.2-2.2c0.1-0.1,0.2-0.2,0.2-0.2c0-0.1-0.1-0.2-0.2-0.2c-0.1,0-0.1,0-0.2,0.2l-2.2,2.2l-2.2-2.2
				c-0.1-0.1-0.2-0.2-0.2-0.2c-0.1,0-0.2,0.1-0.2,0.2c0,0.1,0.1,0.1,0.2,0.2l2.2,2.2l-2.2,2.2c-0.1,0.1-0.2,0.2-0.2,0.2
				c0,0.1,0.1,0.2,0.2,0.2c0.1,0,0.1,0,0.2-0.2l2.2-2.2l2.2,2.2c0.1,0.1,0.2,0.2,0.2,0.2c0.1,0,0.2-0.1,0.2-0.2c0-0.1,0-0.1-0.2-0.2
				L226.7,122.7z"/>
		</g>
	</g>
	<path d="M234.1,123.4l1-0.1c0.1,0.6,0.3,1,0.6,1.2c0.3,0.3,0.6,0.4,1,0.4c0.5,0,0.8-0.2,1.2-0.5c0.3-0.3,0.5-0.7,0.5-1.2
		c0-0.5-0.1-0.8-0.4-1.1c-0.3-0.3-0.7-0.4-1.1-0.4c-0.2,0-0.4,0-0.7,0.1l0.1-0.9c0.1,0,0.1,0,0.2,0c0.4,0,0.8-0.1,1.1-0.3
		c0.3-0.2,0.5-0.6,0.5-1c0-0.4-0.1-0.7-0.4-0.9s-0.6-0.4-1-0.4c-0.4,0-0.7,0.1-1,0.4c-0.2,0.2-0.4,0.6-0.5,1.1l-1-0.2
		c0.1-0.7,0.4-1.2,0.8-1.5c0.4-0.4,1-0.5,1.6-0.5c0.4,0,0.8,0.1,1.2,0.3c0.4,0.2,0.7,0.4,0.9,0.8c0.2,0.3,0.3,0.7,0.3,1
		c0,0.4-0.1,0.7-0.3,1c-0.2,0.3-0.5,0.5-0.8,0.7c0.5,0.1,0.9,0.3,1.1,0.7c0.3,0.3,0.4,0.8,0.4,1.3c0,0.7-0.3,1.3-0.8,1.8
		c-0.5,0.5-1.2,0.7-1.9,0.7c-0.7,0-1.3-0.2-1.8-0.6C234.5,124.7,234.2,124.1,234.1,123.4z"/>
	<path d="M243.7,120.8v0.6h1.1v3.9l-1.1,0l0.1,0.7c1.6-0.1,2.9-0.2,4-0.3v1h0.8v-1.1c0.2,0,0.4-0.1,0.6-0.1v-0.6
		c-0.2,0-0.4,0.1-0.6,0.1v-3.6h5.1v-0.6H243.7z M245.5,125.3v-1h2.3v0.8C247.1,125.2,246.4,125.2,245.5,125.3z M245.5,123.7v-0.8
		h2.3v0.8H245.5z M245.5,122.3v-0.9h2.3v0.9H245.5z M245.2,116.8v3.2h7.1v-3.2H245.2z M251.5,119.4h-5.6v-0.8h5.6V119.4z
		 M245.9,118.1v-0.7h5.6v0.7H245.9z M249.5,122.8c0.2,0.8,0.6,1.6,1.3,2.2c-0.5,0.4-1.1,0.7-1.7,1l0.4,0.6c0.7-0.3,1.4-0.7,1.9-1.2
		c0.5,0.4,1.1,0.8,1.9,1.2l0.4-0.7c-0.7-0.3-1.3-0.6-1.8-1c0.5-0.6,0.9-1.4,1.1-2.2v-0.6h-3.8v0.7H249.5z M251.3,124.6
		c-0.5-0.5-0.9-1.1-1.1-1.7h2.1C252.1,123.5,251.8,124,251.3,124.6z"/>
	<path d="M255,119.3v0.8h4.2c-0.6,2.8-2.1,4.7-4.5,5.9l0.5,0.7c2.4-1.3,3.9-3.2,4.6-6c0.9,2.6,2.4,4.5,4.7,5.9l0.5-0.6
		c-2.3-1.4-3.9-3.3-4.6-5.9h4.4v-0.8h-4.7c0.1-0.7,0.1-1.4,0.1-2.2v-0.7h-0.8v0.9c0,0.7-0.1,1.4-0.2,2H255z"/>
	<path d="M270.7,125.5v-7.9h5.4v-0.8h-6.2v9.5h6.3v-0.8H270.7z M266.9,116.6l-0.6,0.6c0.9,0.6,1.7,1.2,2.2,1.7l0.6-0.6
		C268.5,117.7,267.8,117.2,266.9,116.6z M266.7,119.3l-0.6,0.6c0.9,0.6,1.5,1.1,2.1,1.7l0.6-0.6
		C268.2,120.4,267.5,119.9,266.7,119.3z M268,122.7c-0.5,1.2-1.1,2.4-1.8,3.6l0.8,0.4c0.6-1.1,1.2-2.4,1.7-3.7L268,122.7z"/>
	<path d="M282.1,122.8v3.9h0.7v-4l0.6-0.1c0.4,1.7,1.6,3,3.5,4l0.4-0.7c-0.9-0.4-1.6-0.9-2.1-1.4c0.6-0.4,1.2-0.8,1.6-1.1l-0.4-0.6
		c-0.4,0.4-1,0.8-1.6,1.2c-0.3-0.4-0.6-1-0.7-1.5c0.8-0.2,1.5-0.4,2.1-0.6l-0.4-0.6c-2,0.7-4.5,1-7.4,1l0.2,0.7
		C279.9,123,281,122.9,282.1,122.8z M277.7,116.8v0.6h0.9v3.3c-0.4,0-0.7,0.1-1.1,0.1l0.1,0.7c1.3-0.1,2.6-0.3,3.8-0.4v0.6h0.7V121
		c0.3,0,0.5-0.1,0.8-0.1v-0.6c-0.3,0-0.5,0.1-0.8,0.1v-2.9h0.8v-0.6H277.7z M279.2,120.6v-0.8h2v0.5
		C280.6,120.5,280,120.6,279.2,120.6z M279.2,119.3v-0.6h2v0.6H279.2z M279.2,118.1v-0.7h2v0.7H279.2z M283.5,118.2l-0.5,0.5
		c0.6,0.4,1.2,0.8,1.7,1.2c-0.5,0.5-1.1,0.8-1.8,1l0.3,0.7c0.8-0.3,1.5-0.7,2.1-1.3c0.5,0.4,0.9,0.7,1.3,1.1l0.5-0.5
		c-0.4-0.4-0.8-0.7-1.3-1.1c0.4-0.6,0.9-1.3,1.2-2.1v-0.6h-3.9v0.7h3c-0.3,0.6-0.6,1.1-0.9,1.5C284.7,119,284.1,118.6,283.5,118.2z
		 M280.1,123c-0.3,0.3-0.7,0.5-1,0.7c-0.4,0.2-0.9,0.4-1.5,0.5l0.4,0.6c0.6-0.2,1.2-0.4,1.6-0.7c0.4-0.2,0.7-0.5,1.1-0.8L280.1,123z
		 M281,124.3c-0.4,0.4-0.9,0.7-1.4,0.9c-0.6,0.3-1.2,0.5-1.9,0.7l0.4,0.6c0.8-0.3,1.5-0.6,2-0.9c0.5-0.3,1-0.6,1.4-1L281,124.3z"/>
	<path d="M291.7,120.7v0.7h6.1v-0.7H291.7z M290.9,122.5v0.7h2.5c-0.8,1.3-1.4,2.1-1.9,2.3c-0.1,0-0.1,0.1-0.2,0.1l0.2,0.7
		c2.1-0.1,4.1-0.3,5.9-0.6c0.2,0.3,0.4,0.6,0.6,0.9l0.6-0.4c-0.5-0.7-1.2-1.6-2.1-2.6l-0.6,0.4c0.3,0.4,0.7,0.8,1,1.1
		c-1.4,0.2-2.9,0.4-4.4,0.5c0.5-0.5,1.1-1.3,1.8-2.4h4.3v-0.7H290.9z M297.2,117.6v1.3h-6.6v-1.3H297.2z M290.5,119.6h7.4v-2.8h-8.2
		v3.7c0,2.3-0.4,4.1-1.2,5.5l0.6,0.5c0.9-1.7,1.4-3.7,1.4-6.1V119.6z"/>
	<path class="st0" d="M206,55.4h101.3V36.6H206V55.4z"/>
	<path class="st1" d="M206,36.6h101.3v18.8H206V36.6z"/>
	<path d="M222.5,41.2c-1.3,1.4-2.9,2.6-4.9,3.6l0.4,0.7c2-1,3.6-2.2,4.8-3.5c1.3,1.4,2.9,2.6,4.8,3.5l0.4-0.7
		c-1.9-0.9-3.5-2-4.9-3.5H222.5z M219.7,44.8v0.8h2.7v2h-3.3v0.8h3.3v2.1h-4.3v0.8h9.4v-0.8h-4.3v-2.1h3.3v-0.8h-3.3v-2h2.7v-0.8
		H219.7z"/>
	<path d="M232.2,47.1v2.8h4v-2.8H232.2z M235.4,49.2h-2.5v-1.5h2.5V49.2z M237.3,42.4v1.2h-6.2v-1.2H237.3z M231.1,44.3h6.9v-2.7
		h-7.7V46c0,2-0.5,3.6-1.4,4.8l0.6,0.6c1-1.5,1.5-3.3,1.6-5.4h6.7c0,2.3,0,3.7-0.1,4.1c-0.1,0.4-0.3,0.5-0.7,0.5c-0.4,0-0.9,0-1.5,0
		l0.2,0.7c0.7,0,1.2,0,1.5,0c0.8,0,1.3-0.3,1.4-0.9c0.1-0.6,0.2-2.4,0.2-5.1h-7.5V44.3z"/>
	<path d="M240.8,41.7v0.8h4.1v4.2h-4.5v0.8h4.5v4h0.8v-4h4.6v-0.8h-4.6v-4.2h4.2v-0.8H240.8z M242.2,43.2l-0.7,0.4
		c0.4,0.7,0.8,1.6,1.2,2.6l0.7-0.4C243,44.8,242.6,44,242.2,43.2z M248.6,43.1c-0.3,0.8-0.8,1.7-1.3,2.6l0.7,0.4
		c0.5-0.9,1-1.7,1.3-2.6L248.6,43.1z"/>
	<path d="M259.4,47.2c-1,0.7-2.3,1.3-3.7,1.7l0.4,0.8c1.4-0.5,2.6-1.1,3.6-1.8L259.4,47.2z M257.1,44.8l-0.5,0.5
		c0.7,0.6,1.3,1.1,1.8,1.6l0.6-0.5C258.5,45.9,257.9,45.3,257.1,44.8z M256.9,41.1c-0.3,1.6-1,2.9-1.9,4.1l0.5,0.7
		c0.6-0.6,1-1.4,1.4-2.2h3.7c0,3.4-0.1,5.4-0.2,6.1c-0.1,0.6-0.4,0.9-1,0.9c-0.4,0-1,0-1.6,0l0.2,0.8c0.7,0,1.2,0,1.5,0
		c1,0,1.5-0.5,1.7-1.4c0.1-0.9,0.2-3.3,0.2-7.1h-4.1c0.2-0.5,0.4-1.1,0.5-1.7L256.9,41.1z M251.5,44.2v0.8h1.2v4
		c-0.4,0.1-0.9,0.2-1.3,0.3l0.2,0.9c1.3-0.3,2.4-0.6,3.5-1v-0.8c-0.5,0.2-1,0.4-1.6,0.5v-3.8h1.2v-0.8h-1.2v-2.9h-0.8v2.9H251.5z"/>
	<path d="M267.4,50.3v-7.9h5.4v-0.8h-6.2v9.5h6.3v-0.8H267.4z M263.6,41.4l-0.6,0.6c0.9,0.6,1.7,1.2,2.2,1.7l0.6-0.6
		C265.2,42.5,264.5,41.9,263.6,41.4z M263.4,44.1l-0.6,0.6c0.9,0.6,1.5,1.1,2.1,1.7l0.6-0.6C264.8,45.2,264.2,44.7,263.4,44.1z
		 M264.7,47.4c-0.5,1.2-1.1,2.4-1.8,3.6l0.8,0.4c0.6-1.1,1.2-2.4,1.7-3.7L264.7,47.4z"/>
	<path d="M278.8,47.6v3.9h0.7v-4l0.6-0.1c0.4,1.7,1.6,3,3.5,4l0.4-0.7c-0.9-0.4-1.6-0.9-2.1-1.4c0.6-0.4,1.2-0.8,1.6-1.1l-0.4-0.6
		c-0.4,0.4-1,0.8-1.6,1.2c-0.3-0.4-0.6-1-0.7-1.5c0.8-0.2,1.5-0.4,2.1-0.6l-0.4-0.6c-2,0.7-4.5,1-7.4,1l0.2,0.7
		C276.5,47.7,277.7,47.7,278.8,47.6z M274.3,41.6v0.6h0.9v3.3c-0.4,0-0.7,0.1-1.1,0.1l0.1,0.7c1.3-0.1,2.6-0.3,3.8-0.4v0.6h0.7v-0.7
		c0.3,0,0.5-0.1,0.8-0.1V45c-0.3,0-0.5,0.1-0.8,0.1v-2.9h0.8v-0.6H274.3z M275.9,45.4v-0.8h2v0.5C277.3,45.3,276.6,45.4,275.9,45.4z
		 M275.9,44.1v-0.6h2v0.6H275.9z M275.9,42.9v-0.7h2v0.7H275.9z M280.2,43l-0.5,0.5c0.6,0.4,1.2,0.8,1.7,1.2c-0.5,0.5-1.1,0.8-1.8,1
		l0.3,0.7c0.8-0.3,1.5-0.7,2.1-1.3c0.5,0.4,0.9,0.7,1.3,1.1l0.5-0.5c-0.4-0.4-0.8-0.7-1.3-1.1c0.4-0.6,0.9-1.3,1.2-2.1v-0.6h-3.9
		v0.7h3c-0.3,0.6-0.6,1.1-0.9,1.5C281.4,43.8,280.8,43.4,280.2,43z M276.8,47.8c-0.3,0.3-0.7,0.5-1,0.7c-0.4,0.2-0.9,0.4-1.5,0.5
		l0.4,0.6c0.6-0.2,1.2-0.4,1.6-0.7c0.4-0.2,0.7-0.5,1.1-0.8L276.8,47.8z M277.6,49c-0.4,0.4-0.9,0.7-1.4,0.9
		c-0.6,0.3-1.2,0.5-1.9,0.7l0.4,0.6c0.8-0.3,1.5-0.6,2-0.9c0.5-0.3,1-0.6,1.4-1L277.6,49z"/>
	<path d="M288.4,45.5v0.7h6.1v-0.7H288.4z M287.6,47.3v0.7h2.5c-0.8,1.3-1.4,2.1-1.9,2.3c-0.1,0-0.1,0.1-0.2,0.1l0.2,0.7
		c2.1-0.1,4.1-0.3,5.9-0.6c0.2,0.3,0.4,0.6,0.6,0.9l0.6-0.4c-0.5-0.7-1.2-1.6-2.1-2.6l-0.6,0.4c0.3,0.4,0.7,0.8,1,1.1
		c-1.4,0.2-2.9,0.4-4.4,0.5c0.5-0.5,1.1-1.3,1.8-2.4h4.3v-0.7H287.6z M293.8,42.4v1.3h-6.6v-1.3H293.8z M287.2,44.4h7.4v-2.8h-8.2
		v3.7c0,2.3-0.4,4.1-1.2,5.5l0.6,0.5c0.9-1.7,1.4-3.7,1.4-6.1V44.4z"/>
	<path class="st1" d="M206,5.9h101.3v18.8H206V5.9z"/>
	<path d="M239.4,10.5c-1.3,1.4-2.9,2.6-4.9,3.6l0.4,0.7c2-1,3.6-2.2,4.8-3.5c1.3,1.4,2.9,2.6,4.8,3.5l0.4-0.7
		c-1.9-0.9-3.5-2-4.9-3.5H239.4z M236.6,14v0.8h2.7v2H236v0.8h3.3v2.1H235v0.8h9.4v-0.8h-4.3v-2.1h3.3v-0.8h-3.3v-2h2.7V14H236.6z"
		/>
	<path d="M246.8,10.7l-0.5,0.5c0.8,0.6,1.4,1.2,1.9,1.8l0.6-0.6C248.2,11.8,247.5,11.2,246.8,10.7z M253.3,20.6h2.6l0.2-0.8
		c-0.3,0-0.7,0-1.3,0c-0.6,0-1.1,0-1.6,0c-0.9,0-1.6,0-2.2,0c-0.7,0-1.2-0.1-1.5-0.3c-0.3-0.1-0.6-0.4-0.9-0.7
		c-0.1-0.1-0.2-0.2-0.3-0.3v-4.2H246v0.7h1.6v3.4c-0.5,0.2-1,0.8-1.6,1.7l0.6,0.5c0.6-1,1.1-1.6,1.3-1.6c0.1,0,0.3,0.1,0.4,0.3
		c0.4,0.4,0.7,0.7,1.2,0.8c0.4,0.1,1,0.2,1.7,0.2C252,20.6,252.7,20.6,253.3,20.6z M249.2,11.6v0.7h1.5c-0.4,0.8-0.8,1.5-1.2,2
		l0.2,0.7h2.6v1.3h-3.1v0.8h3.1v2.1h0.8v-2.1h2.9v-0.8H253v-1.3h2.4v-0.7H253v-1.3h-0.8v1.3h-1.8c0.4-0.6,0.8-1.3,1.1-2h4.3v-0.7
		h-3.9c0.1-0.4,0.3-0.7,0.4-1.1l-0.8-0.2c-0.1,0.4-0.3,0.9-0.4,1.3H249.2z"/>
	<path d="M262.5,12.4l-0.7,0.3c0.2,0.4,0.4,0.9,0.7,1.3h-1.7v0.8h6.3V14h-1.8c0.3-0.4,0.5-1,0.7-1.5l-0.8-0.3
		c-0.2,0.6-0.5,1.2-0.8,1.8h-1.1C263.1,13.4,262.8,12.9,262.5,12.4z M264,10.4l-0.8,0.1c0.1,0.3,0.3,0.6,0.4,0.9h-2.5v0.7h5.8v-0.7
		h-2.5C264.3,11.1,264.1,10.7,264,10.4z M258.4,20.7c0.7,0,1-0.3,1-1v-3.3c0.3-0.2,0.6-0.3,0.9-0.5v-0.8c-0.3,0.2-0.6,0.3-0.9,0.5
		v-2.1h0.9v-0.8h-0.9v-2.1h-0.8v2.1h-1.4v0.8h1.4v2.5c-0.5,0.2-1.1,0.4-1.6,0.5l0.2,0.8c0.4-0.2,0.9-0.3,1.4-0.5v2.8
		c0,0.3-0.2,0.4-0.4,0.4c-0.3,0-0.6,0-0.9,0l0.2,0.8H258.4z M263,15.1c-0.1,0.3-0.3,0.6-0.4,1h-1.9v0.8h1.5
		c-0.2,0.4-0.5,0.9-0.8,1.3c0.8,0.3,1.5,0.6,2.2,0.9c-0.7,0.4-1.7,0.7-3,0.9l0.3,0.7c1.6-0.3,2.8-0.8,3.5-1.3
		c0.9,0.4,1.7,0.8,2.3,1.3l0.4-0.6c-0.7-0.4-1.4-0.8-2.2-1.2c0.5-0.6,0.9-1.3,1.1-2.1h1.2v-0.8h-3.8c0.1-0.3,0.3-0.6,0.4-0.9
		L263,15.1z M265.3,16.9c-0.2,0.7-0.5,1.3-1,1.8c-0.6-0.3-1.2-0.5-1.9-0.8c0.2-0.3,0.4-0.6,0.6-1H265.3z"/>
	<path d="M271.5,14.8v0.7h6.1v-0.7H271.5z M270.7,16.6v0.7h2.5c-0.8,1.3-1.4,2.1-1.9,2.3c-0.1,0-0.1,0.1-0.2,0.1l0.2,0.7
		c2.1-0.1,4.1-0.3,5.9-0.6c0.2,0.3,0.4,0.6,0.6,0.9l0.6-0.4c-0.5-0.7-1.2-1.6-2.1-2.6l-0.6,0.4c0.3,0.4,0.7,0.8,1,1.1
		c-1.4,0.2-2.9,0.4-4.4,0.5c0.5-0.5,1.1-1.3,1.8-2.4h4.3v-0.7H270.7z M277,11.7V13h-6.6v-1.3H277z M270.3,13.7h7.4v-2.8h-8.2v3.7
		c0,2.3-0.4,4.1-1.2,5.5l0.6,0.5c0.9-1.7,1.4-3.7,1.4-6.1V13.7z"/>
	<path class="st4" d="M256.6,383.9v-5.6"/>
	<path class="st3" d="M256.6,374.3v4 M255.1,378.3l1.5-4l1.5,4"/>
	<path class="st4" d="M256.6,353.2v-5.6"/>
	<path class="st3" d="M256.6,343.6v4 M255.1,347.6l1.5-4l1.5,4"/>
	<path class="st4" d="M256.6,322.5v-5.6"/>
	<path class="st3" d="M256.6,312.9v4 M255.1,316.9l1.5-4l1.5,4"/>
	<path class="st4" d="M256.6,291.8v-5.6"/>
	<path class="st3" d="M256.6,282.2v4 M255.1,286.2l1.5-4l1.5,4"/>
	<path class="st4" d="M256.6,261.1v-2.6l0-3.3l0,3.3v-3"/>
	<path class="st3" d="M256.6,251.5v4 M255.1,255.5l1.5-4l1.5,4"/>
	<path class="st4" d="M256.6,36.6V31"/>
	<path class="st3" d="M256.6,27v4 M255.1,31l1.5-4l1.5,4"/>
	<path d="M182.6,234.6v1h-5.3c0-0.2,0-0.5,0.1-0.7c0.1-0.4,0.4-0.7,0.7-1.1c0.3-0.4,0.7-0.8,1.3-1.2c0.9-0.7,1.5-1.3,1.8-1.7
		c0.3-0.4,0.5-0.8,0.5-1.2c0-0.4-0.1-0.7-0.4-1c-0.3-0.3-0.6-0.4-1.1-0.4c-0.5,0-0.9,0.1-1.2,0.4c-0.3,0.3-0.4,0.7-0.4,1.2l-1-0.1
		c0.1-0.8,0.3-1.3,0.8-1.7c0.5-0.4,1.1-0.6,1.8-0.6c0.8,0,1.4,0.2,1.8,0.6c0.5,0.4,0.7,1,0.7,1.6c0,0.3-0.1,0.6-0.2,1
		c-0.1,0.3-0.4,0.6-0.7,1c-0.3,0.3-0.8,0.8-1.5,1.4c-0.6,0.5-1,0.8-1.2,1c-0.2,0.2-0.3,0.4-0.4,0.5H182.6z"/>
	<g>
		<defs>
			<rect id="SVGID_15_" x="186.6" y="229.7" width="5.8" height="5.8"/>
		</defs>
		<clipPath id="SVGID_16_">
			<use xlink:href="#SVGID_15_"  style="overflow:visible;"/>
		</clipPath>
		<g class="st13">
			<path d="M189.8,232.7l2.2-2.2c0.1-0.1,0.2-0.2,0.2-0.2c0-0.1-0.1-0.2-0.2-0.2c-0.1,0-0.1,0-0.2,0.2l-2.2,2.2l-2.2-2.2
				c-0.1-0.1-0.2-0.2-0.2-0.2c-0.1,0-0.2,0.1-0.2,0.2c0,0.1,0.1,0.1,0.2,0.2l2.2,2.2l-2.2,2.2c-0.1,0.1-0.2,0.2-0.2,0.2
				c0,0.1,0.1,0.2,0.2,0.2c0.1,0,0.1,0,0.2-0.2l2.2-2.2l2.2,2.2c0.1,0.1,0.2,0.2,0.2,0.2c0.1,0,0.2-0.1,0.2-0.2c0-0.1,0-0.1-0.2-0.2
				L189.8,232.7z"/>
			<path d="M189.8,232.7l2.2-2.2c0.1-0.1,0.2-0.2,0.2-0.2c0-0.1-0.1-0.2-0.2-0.2c-0.1,0-0.1,0-0.2,0.2l-2.2,2.2l-2.2-2.2
				c-0.1-0.1-0.2-0.2-0.2-0.2c-0.1,0-0.2,0.1-0.2,0.2c0,0.1,0.1,0.1,0.2,0.2l2.2,2.2l-2.2,2.2c-0.1,0.1-0.2,0.2-0.2,0.2
				c0,0.1,0.1,0.2,0.2,0.2c0.1,0,0.1,0,0.2-0.2l2.2-2.2l2.2,2.2c0.1,0.1,0.2,0.2,0.2,0.2c0.1,0,0.2-0.1,0.2-0.2c0-0.1,0-0.1-0.2-0.2
				L189.8,232.7z"/>
		</g>
	</g>
	<path d="M177.4,158.6l1-0.1c0.1,0.5,0.3,0.9,0.5,1.2c0.3,0.3,0.6,0.4,1,0.4c0.5,0,0.9-0.2,1.2-0.5c0.3-0.4,0.5-0.8,0.5-1.4
		c0-0.6-0.2-1-0.5-1.3c-0.3-0.3-0.7-0.5-1.2-0.5c-0.3,0-0.6,0.1-0.9,0.2c-0.3,0.1-0.4,0.3-0.6,0.5l-0.9-0.1l0.8-4.1h4v1h-3.2
		l-0.4,2.1c0.5-0.3,1-0.5,1.5-0.5c0.7,0,1.3,0.2,1.8,0.7c0.5,0.5,0.7,1.1,0.7,1.9c0,0.7-0.2,1.4-0.6,1.9c-0.5,0.7-1.2,1-2.1,1
		c-0.7,0-1.3-0.2-1.8-0.6C177.7,159.8,177.4,159.3,177.4,158.6z"/>
	<g>
		<defs>
			<rect id="SVGID_17_" x="186.6" y="154.7" width="5.8" height="5.8"/>
		</defs>
		<clipPath id="SVGID_18_">
			<use xlink:href="#SVGID_17_"  style="overflow:visible;"/>
		</clipPath>
		<g class="st14">
			<path d="M189.8,157.7l2.2-2.2c0.1-0.1,0.2-0.2,0.2-0.2c0-0.1-0.1-0.2-0.2-0.2c-0.1,0-0.1,0-0.2,0.2l-2.2,2.2l-2.2-2.2
				c-0.1-0.1-0.2-0.2-0.2-0.2c-0.1,0-0.2,0.1-0.2,0.2c0,0.1,0.1,0.1,0.2,0.2l2.2,2.2l-2.2,2.2c-0.1,0.1-0.2,0.2-0.2,0.2
				c0,0.1,0.1,0.2,0.2,0.2c0.1,0,0.1,0,0.2-0.2l2.2-2.2l2.2,2.2c0.1,0.1,0.2,0.2,0.2,0.2c0.1,0,0.2-0.1,0.2-0.2c0-0.1,0-0.1-0.2-0.2
				L189.8,157.7z"/>
			<path d="M189.8,157.7l2.2-2.2c0.1-0.1,0.2-0.2,0.2-0.2c0-0.1-0.1-0.2-0.2-0.2c-0.1,0-0.1,0-0.2,0.2l-2.2,2.2l-2.2-2.2
				c-0.1-0.1-0.2-0.2-0.2-0.2c-0.1,0-0.2,0.1-0.2,0.2c0,0.1,0.1,0.1,0.2,0.2l2.2,2.2l-2.2,2.2c-0.1,0.1-0.2,0.2-0.2,0.2
				c0,0.1,0.1,0.2,0.2,0.2c0.1,0,0.1,0,0.2-0.2l2.2-2.2l2.2,2.2c0.1,0.1,0.2,0.2,0.2,0.2c0.1,0,0.2-0.1,0.2-0.2c0-0.1,0-0.1-0.2-0.2
				L189.8,157.7z"/>
		</g>
	</g>
	<path d="M182.6,84.9v1h-5.3c0-0.2,0-0.5,0.1-0.7c0.1-0.4,0.4-0.7,0.7-1.1c0.3-0.4,0.7-0.8,1.3-1.2c0.9-0.7,1.5-1.3,1.8-1.7
		c0.3-0.4,0.5-0.8,0.5-1.2c0-0.4-0.1-0.7-0.4-1c-0.3-0.3-0.6-0.4-1.1-0.4c-0.5,0-0.9,0.1-1.2,0.4c-0.3,0.3-0.4,0.7-0.4,1.2l-1-0.1
		c0.1-0.8,0.3-1.3,0.8-1.7c0.5-0.4,1.1-0.6,1.8-0.6c0.8,0,1.4,0.2,1.8,0.6c0.5,0.4,0.7,1,0.7,1.6c0,0.3-0.1,0.6-0.2,1
		c-0.1,0.3-0.4,0.6-0.7,1c-0.3,0.3-0.8,0.8-1.5,1.4c-0.6,0.5-1,0.8-1.2,1c-0.2,0.2-0.3,0.4-0.4,0.5H182.6z"/>
	<g>
		<defs>
			<rect id="SVGID_19_" x="186.6" y="79.8" width="5.8" height="5.7"/>
		</defs>
		<clipPath id="SVGID_20_">
			<use xlink:href="#SVGID_19_"  style="overflow:visible;"/>
		</clipPath>
		<g class="st15">
			<path d="M189.8,82.8l2.2-2.2c0.1-0.1,0.2-0.2,0.2-0.2c0-0.1-0.1-0.2-0.2-0.2c-0.1,0-0.1,0-0.2,0.2l-2.2,2.2l-2.2-2.2
				c-0.1-0.1-0.2-0.2-0.2-0.2c-0.1,0-0.2,0.1-0.2,0.2c0,0.1,0.1,0.1,0.2,0.2l2.2,2.2L187,85c-0.1,0.1-0.2,0.2-0.2,0.2
				c0,0.1,0.1,0.2,0.2,0.2c0.1,0,0.1,0,0.2-0.2l2.2-2.2l2.2,2.2c0.1,0.1,0.2,0.2,0.2,0.2c0.1,0,0.2-0.1,0.2-0.2c0-0.1,0-0.1-0.2-0.2
				L189.8,82.8z"/>
			<path d="M189.8,82.8l2.2-2.2c0.1-0.1,0.2-0.2,0.2-0.2c0-0.1-0.1-0.2-0.2-0.2c-0.1,0-0.1,0-0.2,0.2l-2.2,2.2l-2.2-2.2
				c-0.1-0.1-0.2-0.2-0.2-0.2c-0.1,0-0.2,0.1-0.2,0.2c0,0.1,0.1,0.1,0.2,0.2l2.2,2.2L187,85c-0.1,0.1-0.2,0.2-0.2,0.2
				c0,0.1,0.1,0.2,0.2,0.2c0.1,0,0.1,0,0.2-0.2l2.2-2.2l2.2,2.2c0.1,0.1,0.2,0.2,0.2,0.2c0.1,0,0.2-0.1,0.2-0.2c0-0.1,0-0.1-0.2-0.2
				L189.8,82.8z"/>
		</g>
	</g>
	<path class="st4" d="M256.6,217v-5.6"/>
	<path class="st3" d="M256.6,207.4l0,4 M255.1,211.4l1.5-4l1.5,4"/>
	<path class="st4" d="M256.6,186.3v-2.6l0-3.3l0,3.3v-3"/>
	<path class="st3" d="M256.6,176.7v4 M255.1,180.7l1.5-4l1.5,4"/>
	<path class="st4" d="M256.6,142.1v-5.6"/>
	<path class="st3" d="M256.6,132.6l0,4 M255.1,136.6l1.5-4l1.5,4"/>
	<path class="st4" d="M256.6,111.4v-2.6l0-3.3l0,3.3v-3"/>
	<path class="st3" d="M256.6,101.9v4 M255.1,105.9l1.5-4l1.5,4"/>
	<path class="st4" d="M256.6,67.3v-5.6"/>
	<path class="st3" d="M256.6,57.7l0,4 M255.1,61.7l1.5-4l1.5,4"/>
</g>
<polyline class="st16" points="318.8,395 335.3,395 335.3,362 318.8,362 "/>
<polyline class="st16" points="318.8,233.1 335.3,233.1 335.3,194.9 318.8,194.9 "/>
<polyline class="st16" points="318.8,158.9 335.3,158.9 335.3,120.8 318.8,120.8 "/>
<polyline class="st16" points="318.8,84.8 335.3,84.8 335.3,46.7 318.8,46.7 "/>
<polyline class="st16" points="318.8,331.4 335.3,331.4 335.3,269 318.8,269 "/>
<text transform="matrix(1 0 0 1 343.7083 383.5846)" class="st17 st18 st19">Stage1</text>
<text transform="matrix(1 0 0 1 343.7083 303.3737)" class="st17 st18 st19">Stage2</text>
<text transform="matrix(1 0 0 1 343.7083 219.3815)" class="st17 st18 st19">Stage3</text>
<text transform="matrix(1 0 0 1 343.7083 144.5495)" class="st17 st18 st19">Stage4</text>
<text transform="matrix(1 0 0 1 343.7083 69.7214)" class="st17 st18 st19">Stage5</text>
</svg>
