<?xml version="1.0" encoding="utf-8"?>
<!-- Generator: Adobe Illustrator 22.1.0, SVG Export Plug-In . SVG Version: 6.00 Build 0)  -->
<svg version="1.1" id="图层_1" xmlns="http://www.w3.org/2000/svg" xmlns:xlink="http://www.w3.org/1999/xlink" x="0px" y="0px"
	 viewBox="0 0 700.9 226.4" style="enable-background:new 0 0 700.9 226.4;" xml:space="preserve">
<style type="text/css">
	.st0{fill:none;stroke:#000000;stroke-linecap:round;stroke-linejoin:round;stroke-miterlimit:10;}
	.st1{fill:none;stroke:#000000;stroke-miterlimit:10;}
	.st2{fill:#B2D9FF;}
	.st3{clip-path:url(#SVGID_2_);}
	.st4{clip-path:url(#SVGID_4_);}
	.st5{fill:#66BFFF;}
	.st6{clip-path:url(#SVGID_6_);}
</style>
<g id="surface1">
	<path d="M333.9,25.4l-3.1-8h1.2l2.1,5.8c0.2,0.5,0.3,0.9,0.4,1.3c0.1-0.4,0.3-0.9,0.4-1.3l2.2-5.8h1.1l-3.2,8H333.9z"/>
	<path d="M342.9,22.3v-0.9h3.4v3c-0.5,0.4-1.1,0.7-1.6,0.9s-1.1,0.3-1.7,0.3c-0.8,0-1.5-0.2-2.1-0.5c-0.7-0.3-1.1-0.8-1.5-1.5
		c-0.3-0.6-0.5-1.4-0.5-2.1c0-0.8,0.2-1.5,0.5-2.2c0.3-0.7,0.8-1.2,1.4-1.5c0.6-0.3,1.3-0.5,2.1-0.5c0.6,0,1.1,0.1,1.6,0.3
		c0.5,0.2,0.8,0.4,1.1,0.8c0.3,0.3,0.5,0.8,0.6,1.3l-1,0.3c-0.1-0.4-0.3-0.7-0.5-1c-0.2-0.2-0.4-0.4-0.8-0.6
		c-0.3-0.1-0.7-0.2-1.1-0.2c-0.5,0-0.9,0.1-1.3,0.2c-0.4,0.1-0.6,0.3-0.9,0.6c-0.2,0.2-0.4,0.5-0.5,0.8c-0.2,0.5-0.3,1.1-0.3,1.6
		c0,0.7,0.1,1.3,0.4,1.8c0.2,0.5,0.6,0.8,1.1,1.1s1,0.4,1.5,0.4c0.5,0,0.9-0.1,1.3-0.3c0.4-0.2,0.8-0.4,1-0.6v-1.5H342.9z"/>
	<path d="M351.6,22.3v-0.9h3.4v3c-0.5,0.4-1.1,0.7-1.6,0.9s-1.1,0.3-1.7,0.3c-0.8,0-1.5-0.2-2.1-0.5c-0.7-0.3-1.1-0.8-1.5-1.5
		c-0.3-0.6-0.5-1.4-0.5-2.1c0-0.8,0.2-1.5,0.5-2.2c0.3-0.7,0.8-1.2,1.4-1.5c0.6-0.3,1.3-0.5,2.1-0.5c0.6,0,1.1,0.1,1.6,0.3
		c0.5,0.2,0.8,0.4,1.1,0.8c0.3,0.3,0.5,0.8,0.6,1.3l-1,0.3c-0.1-0.4-0.3-0.7-0.5-1c-0.2-0.2-0.4-0.4-0.8-0.6
		c-0.3-0.1-0.7-0.2-1.1-0.2c-0.5,0-0.9,0.1-1.3,0.2c-0.4,0.1-0.6,0.3-0.9,0.6c-0.2,0.2-0.4,0.5-0.5,0.8c-0.2,0.5-0.3,1.1-0.3,1.6
		c0,0.7,0.1,1.3,0.4,1.8c0.2,0.5,0.6,0.8,1.1,1.1s1,0.4,1.5,0.4c0.5,0,0.9-0.1,1.3-0.3c0.4-0.2,0.8-0.4,1-0.6v-1.5H351.6z"/>
	<path d="M365.8,22.4c0.7,1.6,1.8,3,3.3,4.1l0.5-0.6c-1.5-1-2.6-2.3-3.3-3.9h3.2v-0.8h-1V18h-2.4v-1.7h-0.8V18h-2.1v0.8h2.1v1
		c0,0.5,0,1-0.1,1.5h-2.4V22h2.3c-0.4,1.8-1.3,3.1-2.8,3.9l0.5,0.6C364.3,25.7,365.3,24.3,365.8,22.4z M366.1,18.7h1.7v2.5H366
		c0.1-0.5,0.1-1.1,0.1-1.7V18.7z M359.4,19.2V20h1.3v4c-0.5,0.1-0.9,0.3-1.4,0.4l0.2,0.8c1.3-0.3,2.5-0.8,3.6-1.3v-0.8
		c-0.5,0.2-1,0.4-1.5,0.6V20h1.3v-0.8h-1.3v-2.9h-0.8v2.9H359.4z"/>
	<path class="st0" d="M268.3,45.8h164.4v164.4H268.3V45.8z"/>
	<path class="st0" d="M350.4,136.1v-9"/>
	<path class="st1" d="M350.4,122.1v5 M348.5,127.1l1.9-5l1.9,5"/>
	<path class="st2" d="M276,199.8h148.8v-23.6H276V199.8z"/>
	<path class="st0" d="M276,176.1h148.8v23.6H276V176.1z"/>
	<path d="M300.3,190.6l1-0.1c0.1,0.6,0.3,1,0.6,1.2c0.3,0.3,0.6,0.4,1,0.4c0.5,0,0.8-0.2,1.2-0.5c0.3-0.3,0.5-0.7,0.5-1.2
		c0-0.5-0.2-0.8-0.4-1.1c-0.3-0.3-0.7-0.4-1.1-0.4c-0.2,0-0.4,0-0.7,0.1l0.1-0.9c0.1,0,0.1,0,0.2,0c0.4,0,0.8-0.1,1.1-0.3
		c0.3-0.2,0.5-0.6,0.5-1c0-0.4-0.1-0.7-0.4-0.9c-0.3-0.2-0.6-0.4-1-0.4c-0.4,0-0.7,0.1-1,0.4c-0.3,0.2-0.4,0.6-0.5,1.1l-1-0.2
		c0.1-0.7,0.4-1.2,0.8-1.5c0.4-0.4,1-0.5,1.6-0.5c0.4,0,0.8,0.1,1.2,0.3c0.4,0.2,0.7,0.4,0.9,0.8c0.2,0.3,0.3,0.7,0.3,1
		c0,0.4-0.1,0.7-0.3,1c-0.2,0.3-0.5,0.5-0.8,0.7c0.5,0.1,0.8,0.3,1.1,0.7c0.3,0.3,0.4,0.8,0.4,1.3c0,0.7-0.3,1.3-0.8,1.8
		c-0.5,0.5-1.2,0.7-1.9,0.7c-0.7,0-1.3-0.2-1.8-0.6C300.6,191.8,300.4,191.2,300.3,190.6z"/>
	<g>
		<defs>
			<rect id="SVGID_1_" x="309.5" y="187" width="5.9" height="5.8"/>
		</defs>
		<clipPath id="SVGID_2_">
			<use xlink:href="#SVGID_1_"  style="overflow:visible;"/>
		</clipPath>
		<g class="st3">
			<path d="M312.8,189.9l2.2-2.2c0.1-0.1,0.2-0.2,0.2-0.2c0-0.1-0.1-0.2-0.2-0.2c-0.1,0-0.1,0-0.2,0.2l-2.2,2.2l-2.2-2.2
				c-0.1-0.1-0.2-0.2-0.2-0.2c-0.1,0-0.2,0.1-0.2,0.2c0,0.1,0.1,0.1,0.2,0.2l2.2,2.2l-2.2,2.2c-0.1,0.1-0.2,0.2-0.2,0.2
				c0,0.1,0.1,0.2,0.2,0.2c0.1,0,0.1,0,0.2-0.2l2.2-2.2l2.2,2.2c0.1,0.1,0.2,0.2,0.2,0.2c0.1,0,0.2-0.1,0.2-0.2c0-0.1,0-0.1-0.2-0.2
				L312.8,189.9z"/>
			<path d="M312.8,189.9l2.2-2.2c0.1-0.1,0.2-0.2,0.2-0.2c0-0.1-0.1-0.2-0.2-0.2c-0.1,0-0.1,0-0.2,0.2l-2.2,2.2l-2.2-2.2
				c-0.1-0.1-0.2-0.2-0.2-0.2c-0.1,0-0.2,0.1-0.2,0.2c0,0.1,0.1,0.1,0.2,0.2l2.2,2.2l-2.2,2.2c-0.1,0.1-0.2,0.2-0.2,0.2
				c0,0.1,0.1,0.2,0.2,0.2c0.1,0,0.1,0,0.2-0.2l2.2-2.2l2.2,2.2c0.1,0.1,0.2,0.2,0.2,0.2c0.1,0,0.2-0.1,0.2-0.2c0-0.1,0-0.1-0.2-0.2
				L312.8,189.9z"/>
		</g>
	</g>
	<path d="M320.1,190.6l1-0.1c0.1,0.6,0.3,1,0.6,1.2c0.3,0.3,0.6,0.4,1,0.4c0.5,0,0.8-0.2,1.2-0.5c0.3-0.3,0.5-0.7,0.5-1.2
		c0-0.5-0.1-0.8-0.4-1.1c-0.3-0.3-0.7-0.4-1.1-0.4c-0.2,0-0.4,0-0.7,0.1l0.1-0.9c0.1,0,0.1,0,0.2,0c0.4,0,0.8-0.1,1.1-0.3
		c0.3-0.2,0.5-0.6,0.5-1c0-0.4-0.1-0.7-0.4-0.9s-0.6-0.4-1-0.4c-0.4,0-0.7,0.1-1,0.4c-0.2,0.2-0.4,0.6-0.5,1.1l-1-0.2
		c0.1-0.7,0.4-1.2,0.8-1.5c0.4-0.4,1-0.5,1.6-0.5c0.4,0,0.8,0.1,1.2,0.3c0.4,0.2,0.7,0.4,0.9,0.8c0.2,0.3,0.3,0.7,0.3,1
		c0,0.4-0.1,0.7-0.3,1c-0.2,0.3-0.5,0.5-0.8,0.7c0.5,0.1,0.9,0.3,1.1,0.7c0.3,0.3,0.4,0.8,0.4,1.3c0,0.7-0.3,1.3-0.8,1.8
		c-0.5,0.5-1.2,0.7-1.9,0.7c-0.7,0-1.3-0.2-1.8-0.6C320.4,191.8,320.2,191.2,320.1,190.6z"/>
	<path d="M332,183.6l-0.7,0.3c0.3,0.4,0.6,1,0.9,1.6l0.7-0.3C332.6,184.6,332.3,184.1,332,183.6z M337.5,183.6
		c-0.3,0.6-0.6,1.1-1,1.5l0.6,0.4c0.4-0.4,0.8-1,1.1-1.6L337.5,183.6z M330.5,185.5v0.7h3.3c-0.2,0.4-0.4,0.8-0.7,1.1h-3.2v0.7h2.7
		c-0.8,0.9-1.8,1.6-3,2.1l0.4,0.7c0.7-0.4,1.4-0.8,2-1.3v3.1c0,0.6,0.3,0.9,1,0.9h4.2c0.6,0,1-0.1,1.2-0.3c0.2-0.2,0.4-0.8,0.5-1.6
		l-0.8-0.3c-0.1,0.6-0.2,0.9-0.3,1.2c-0.1,0.2-0.4,0.3-0.9,0.3h-3.6c-0.4,0-0.5-0.1-0.5-0.4V190h3.6v0.8c0,0.2-0.2,0.4-0.4,0.4
		c-0.5,0-1,0-1.5,0l0.2,0.7c0.5,0,1.1,0,1.7,0c0.6,0,0.9-0.3,0.9-0.8v-1.5c0.6,0.5,1.3,0.9,2.1,1.3l0.5-0.7c-1.4-0.6-2.4-1.3-3-2.1
		h2.7v-0.7H334c0.2-0.4,0.4-0.7,0.6-1.1h4.3v-0.7h-4c0.2-0.6,0.4-1.3,0.5-2l-0.8-0.1c-0.1,0.7-0.3,1.4-0.5,2.1H330.5z M333.5,188.2
		h2.5c0.3,0.4,0.6,0.8,1,1.1h-4.5C332.8,188.9,333.2,188.6,333.5,188.2z"/>
	<path d="M341.1,185.2c0.5-0.1,1.1-0.2,1.5-0.3v1.6H341v0.8h1.6c-0.4,1.3-1.1,2.5-2,3.5l0.3,0.8c0.7-0.9,1.2-1.9,1.7-3v5.1h0.8v-5.1
		c0.3,0.4,0.7,1.1,1.2,1.9l0.4-0.7c-0.6-0.7-1.1-1.3-1.6-1.9v-0.6h1.4v-0.8h-1.4v-1.8c0.5-0.1,0.9-0.2,1.3-0.4l-0.3-0.8
		c-1,0.4-2.2,0.7-3.5,0.8L341.1,185.2z M345.5,184.2v5.2h4.9v-5.2H345.5z M349.5,188.6h-3.2V185h3.2V188.6z M346.4,190.1
		c-0.5,1.3-1.1,2.3-1.9,3.2l0.7,0.5c0.7-1,1.4-2.1,1.9-3.4L346.4,190.1z M349.2,190.1l-0.6,0.4c0.8,1.2,1.4,2.3,1.9,3.3l0.7-0.5
		C350.7,192.4,350,191.3,349.2,190.1z"/>
	<path d="M355.2,187.8v0.7h6.1v-0.7H355.2z M354.4,189.6v0.7h2.5c-0.8,1.3-1.4,2.1-1.9,2.3c-0.1,0-0.1,0.1-0.2,0.1l0.2,0.7
		c2.1-0.1,4.1-0.3,5.9-0.6c0.2,0.3,0.4,0.6,0.6,0.9l0.6-0.4c-0.5-0.7-1.2-1.6-2.1-2.6l-0.6,0.4c0.3,0.4,0.7,0.8,1,1.1
		c-1.4,0.2-2.9,0.4-4.4,0.5c0.5-0.5,1.1-1.3,1.8-2.4h4.3v-0.7H354.4z M360.6,184.7v1.3H354v-1.3H360.6z M354,186.7h7.4v-2.8h-8.2
		v3.7c0,2.3-0.4,4.1-1.2,5.5l0.6,0.5c0.9-1.7,1.4-3.7,1.4-6.1V186.7z"/>
	<path d="M363.8,192.7v-1.1h1.1v1.1c0,0.4-0.1,0.7-0.2,1c-0.1,0.3-0.4,0.5-0.7,0.6l-0.3-0.4c0.2-0.1,0.4-0.2,0.4-0.4
		c0.1-0.2,0.2-0.4,0.2-0.8H363.8z"/>
	<path d="M373.1,184.3v0.7h2.8c0,0.2-0.1,0.5-0.1,0.7h-2v5.2h-1.1v0.7h7.1V191h-1v-5.2h-2.3c0-0.2,0.1-0.5,0.1-0.7h2.8v-0.7h-2.7
		c0-0.3,0.1-0.5,0.1-0.8l-0.8-0.1c0,0.3-0.1,0.6-0.1,0.9H373.1z M374.5,191v-0.7h3.5v0.7H374.5z M374.5,189.6V189h3.5v0.7H374.5z
		 M374.5,188.4v-0.7h3.5v0.7H374.5z M374.5,187.1v-0.7h3.5v0.7H374.5z M377.5,191.9l-0.5,0.4c0.8,0.4,1.5,1,2.2,1.6l0.5-0.6
		C379,192.7,378.3,192.3,377.5,191.9z M375,191.8c-0.6,0.5-1.4,1-2.4,1.4l0.5,0.6c1-0.4,1.8-1,2.4-1.5L375,191.8z M369.6,186.3v0.8
		h1.3v3.8c-0.4,0.1-0.9,0.2-1.3,0.3l0.2,0.8c1.1-0.3,2.1-0.6,3-1v-0.8c-0.4,0.2-0.7,0.3-1.1,0.4V187h1.2v-0.8h-1.2v-2.7h-0.8v2.7
		H369.6z"/>
	<path d="M385.9,183.5l-0.9,0.1c0.2,0.4,0.4,0.8,0.6,1.3h-4.4v0.8h3.2c-0.9,1.3-1.7,2.2-2.2,2.5c-0.1,0-0.1,0-0.2,0.1l0.2,0.7
		c2.3-0.1,4.5-0.3,6.5-0.5c0.3,0.4,0.5,0.8,0.8,1.2l0.7-0.5c-0.5-0.9-1.3-1.9-2.2-3l-0.6,0.4c0.3,0.4,0.6,0.8,0.9,1.2
		c-1.6,0.2-3.3,0.3-4.9,0.4c0.6-0.5,1.2-1.4,2-2.6h5.2v-0.8h-4.1C386.2,184.3,386.1,183.9,385.9,183.5z M383.9,189.3
		c-0.1,1.2-0.3,2-0.7,2.5c-0.4,0.5-1.2,1-2.2,1.3l0.5,0.6c1.2-0.5,2-1,2.4-1.6c0.4-0.6,0.7-1.5,0.8-2.9H383.9z M389.4,193.6
		c0.4,0,0.7-0.1,0.9-0.3c0.2-0.2,0.4-0.9,0.5-2.1l-0.7-0.2c-0.1,0.9-0.2,1.5-0.4,1.7c-0.1,0.1-0.3,0.2-0.5,0.2h-1.3
		c-0.4,0-0.6-0.2-0.6-0.5v-3.2h-0.8v3.3c0,0.8,0.4,1.1,1.2,1.1H389.4z"/>
	<path d="M398.8,192.7h-1v-6.3c-0.2,0.2-0.5,0.5-0.9,0.7c-0.4,0.2-0.7,0.4-1,0.5v-1c0.5-0.2,1-0.6,1.4-0.9c0.4-0.4,0.7-0.7,0.9-1.1
		h0.6V192.7z"/>
	<path class="st2" d="M276,119.8h148.8V96.1H276V119.8z"/>
	<path class="st0" d="M276,96.1h148.8v23.6H276V96.1z"/>
	<path d="M300.3,110.6l1-0.1c0.1,0.6,0.3,1,0.6,1.2c0.3,0.3,0.6,0.4,1,0.4c0.5,0,0.8-0.2,1.2-0.5c0.3-0.3,0.5-0.7,0.5-1.2
		c0-0.5-0.2-0.8-0.4-1.1c-0.3-0.3-0.7-0.4-1.1-0.4c-0.2,0-0.4,0-0.7,0.1l0.1-0.9c0.1,0,0.1,0,0.2,0c0.4,0,0.8-0.1,1.1-0.3
		c0.3-0.2,0.5-0.6,0.5-1c0-0.4-0.1-0.7-0.4-0.9c-0.3-0.2-0.6-0.4-1-0.4c-0.4,0-0.7,0.1-1,0.4c-0.3,0.2-0.4,0.6-0.5,1.1l-1-0.2
		c0.1-0.7,0.4-1.2,0.8-1.5c0.4-0.4,1-0.5,1.6-0.5c0.4,0,0.8,0.1,1.2,0.3c0.4,0.2,0.7,0.4,0.9,0.8c0.2,0.3,0.3,0.7,0.3,1
		c0,0.4-0.1,0.7-0.3,1c-0.2,0.3-0.5,0.5-0.8,0.7c0.5,0.1,0.8,0.3,1.1,0.7c0.3,0.3,0.4,0.8,0.4,1.3c0,0.7-0.3,1.3-0.8,1.8
		c-0.5,0.5-1.2,0.7-1.9,0.7c-0.7,0-1.3-0.2-1.8-0.6C300.6,111.8,300.4,111.2,300.3,110.6z"/>
	<g>
		<defs>
			<rect id="SVGID_3_" x="309.5" y="107" width="5.9" height="5.8"/>
		</defs>
		<clipPath id="SVGID_4_">
			<use xlink:href="#SVGID_3_"  style="overflow:visible;"/>
		</clipPath>
		<g class="st4">
			<path d="M312.8,109.9l2.2-2.2c0.1-0.1,0.2-0.2,0.2-0.2c0-0.1-0.1-0.2-0.2-0.2c-0.1,0-0.1,0-0.2,0.2l-2.2,2.2l-2.2-2.2
				c-0.1-0.1-0.2-0.2-0.2-0.2c-0.1,0-0.2,0.1-0.2,0.2c0,0.1,0.1,0.1,0.2,0.2l2.2,2.2l-2.2,2.2c-0.1,0.1-0.2,0.2-0.2,0.2
				c0,0.1,0.1,0.2,0.2,0.2c0.1,0,0.1,0,0.2-0.2l2.2-2.2l2.2,2.2c0.1,0.1,0.2,0.2,0.2,0.2c0.1,0,0.2-0.1,0.2-0.2c0-0.1,0-0.1-0.2-0.2
				L312.8,109.9z"/>
			<path d="M312.8,109.9l2.2-2.2c0.1-0.1,0.2-0.2,0.2-0.2c0-0.1-0.1-0.2-0.2-0.2c-0.1,0-0.1,0-0.2,0.2l-2.2,2.2l-2.2-2.2
				c-0.1-0.1-0.2-0.2-0.2-0.2c-0.1,0-0.2,0.1-0.2,0.2c0,0.1,0.1,0.1,0.2,0.2l2.2,2.2l-2.2,2.2c-0.1,0.1-0.2,0.2-0.2,0.2
				c0,0.1,0.1,0.2,0.2,0.2c0.1,0,0.1,0,0.2-0.2l2.2-2.2l2.2,2.2c0.1,0.1,0.2,0.2,0.2,0.2c0.1,0,0.2-0.1,0.2-0.2c0-0.1,0-0.1-0.2-0.2
				L312.8,109.9z"/>
		</g>
	</g>
	<path d="M320.1,110.6l1-0.1c0.1,0.6,0.3,1,0.6,1.2c0.3,0.3,0.6,0.4,1,0.4c0.5,0,0.8-0.2,1.2-0.5c0.3-0.3,0.5-0.7,0.5-1.2
		c0-0.5-0.1-0.8-0.4-1.1c-0.3-0.3-0.7-0.4-1.1-0.4c-0.2,0-0.4,0-0.7,0.1l0.1-0.9c0.1,0,0.1,0,0.2,0c0.4,0,0.8-0.1,1.1-0.3
		c0.3-0.2,0.5-0.6,0.5-1c0-0.4-0.1-0.7-0.4-0.9s-0.6-0.4-1-0.4c-0.4,0-0.7,0.1-1,0.4c-0.2,0.2-0.4,0.6-0.5,1.1l-1-0.2
		c0.1-0.7,0.4-1.2,0.8-1.5c0.4-0.4,1-0.5,1.6-0.5c0.4,0,0.8,0.1,1.2,0.3c0.4,0.2,0.7,0.4,0.9,0.8c0.2,0.3,0.3,0.7,0.3,1
		c0,0.4-0.1,0.7-0.3,1c-0.2,0.3-0.5,0.5-0.8,0.7c0.5,0.1,0.9,0.3,1.1,0.7c0.3,0.3,0.4,0.8,0.4,1.3c0,0.7-0.3,1.3-0.8,1.8
		c-0.5,0.5-1.2,0.7-1.9,0.7c-0.7,0-1.3-0.2-1.8-0.6C320.4,111.8,320.2,111.2,320.1,110.6z"/>
	<path d="M332,103.6l-0.7,0.3c0.3,0.4,0.6,1,0.9,1.6l0.7-0.3C332.6,104.6,332.3,104.1,332,103.6z M337.5,103.6
		c-0.3,0.6-0.6,1.1-1,1.5l0.6,0.4c0.4-0.4,0.8-1,1.1-1.6L337.5,103.6z M330.5,105.5v0.7h3.3c-0.2,0.4-0.4,0.8-0.7,1.1h-3.2v0.7h2.7
		c-0.8,0.9-1.8,1.6-3,2.1l0.4,0.7c0.7-0.4,1.4-0.8,2-1.3v3.1c0,0.6,0.3,0.9,1,0.9h4.2c0.6,0,1-0.1,1.2-0.3c0.2-0.2,0.4-0.8,0.5-1.6
		l-0.8-0.3c-0.1,0.6-0.2,0.9-0.3,1.2c-0.1,0.2-0.4,0.3-0.9,0.3h-3.6c-0.4,0-0.5-0.1-0.5-0.4V110h3.6v0.8c0,0.2-0.2,0.4-0.4,0.4
		c-0.5,0-1,0-1.5,0l0.2,0.7c0.5,0,1.1,0,1.7,0c0.6,0,0.9-0.3,0.9-0.8v-1.5c0.6,0.5,1.3,0.9,2.1,1.3l0.5-0.7c-1.4-0.6-2.4-1.3-3-2.1
		h2.7v-0.7H334c0.2-0.4,0.4-0.7,0.6-1.1h4.3v-0.7h-4c0.2-0.6,0.4-1.3,0.5-2l-0.8-0.1c-0.1,0.7-0.3,1.4-0.5,2.1H330.5z M333.5,108.2
		h2.5c0.3,0.4,0.6,0.8,1,1.1h-4.5C332.8,108.9,333.2,108.6,333.5,108.2z"/>
	<path d="M341.1,105.2c0.5-0.1,1.1-0.2,1.5-0.3v1.6H341v0.8h1.6c-0.4,1.3-1.1,2.5-2,3.5l0.3,0.8c0.7-0.9,1.2-1.9,1.7-3v5.1h0.8v-5.1
		c0.3,0.4,0.7,1.1,1.2,1.9l0.4-0.7c-0.6-0.7-1.1-1.3-1.6-1.9v-0.6h1.4v-0.8h-1.4v-1.8c0.5-0.1,0.9-0.2,1.3-0.4l-0.3-0.8
		c-1,0.4-2.2,0.7-3.5,0.8L341.1,105.2z M345.5,104.2v5.2h4.9v-5.2H345.5z M349.5,108.6h-3.2V105h3.2V108.6z M346.4,110.1
		c-0.5,1.3-1.1,2.3-1.9,3.2l0.7,0.5c0.7-1,1.4-2.1,1.9-3.4L346.4,110.1z M349.2,110.1l-0.6,0.4c0.8,1.2,1.4,2.3,1.9,3.3l0.7-0.5
		C350.7,112.4,350,111.3,349.2,110.1z"/>
	<path d="M355.2,107.8v0.7h6.1v-0.7H355.2z M354.4,109.6v0.7h2.5c-0.8,1.3-1.4,2.1-1.9,2.3c-0.1,0-0.1,0.1-0.2,0.1l0.2,0.7
		c2.1-0.1,4.1-0.3,5.9-0.6c0.2,0.3,0.4,0.6,0.6,0.9l0.6-0.4c-0.5-0.7-1.2-1.6-2.1-2.6l-0.6,0.4c0.3,0.4,0.7,0.8,1,1.1
		c-1.4,0.2-2.9,0.4-4.4,0.5c0.5-0.5,1.1-1.3,1.8-2.4h4.3v-0.7H354.4z M360.6,104.7v1.3H354v-1.3H360.6z M354,106.7h7.4v-2.8h-8.2
		v3.7c0,2.3-0.4,4.1-1.2,5.5l0.6,0.5c0.9-1.7,1.4-3.7,1.4-6.1V106.7z"/>
	<path d="M363.8,112.7v-1.1h1.1v1.1c0,0.4-0.1,0.7-0.2,1c-0.1,0.3-0.4,0.5-0.7,0.6l-0.3-0.4c0.2-0.1,0.4-0.2,0.4-0.4
		c0.1-0.2,0.2-0.4,0.2-0.8H363.8z"/>
	<path d="M373.1,104.3v0.7h2.8c0,0.2-0.1,0.5-0.1,0.7h-2v5.2h-1.1v0.7h7.1V111h-1v-5.2h-2.3c0-0.2,0.1-0.5,0.1-0.7h2.8v-0.7h-2.7
		c0-0.3,0.1-0.5,0.1-0.8l-0.8-0.1c0,0.3-0.1,0.6-0.1,0.9H373.1z M374.5,111v-0.7h3.5v0.7H374.5z M374.5,109.6V109h3.5v0.7H374.5z
		 M374.5,108.4v-0.7h3.5v0.7H374.5z M374.5,107.1v-0.7h3.5v0.7H374.5z M377.5,111.9l-0.5,0.4c0.8,0.4,1.5,1,2.2,1.6l0.5-0.6
		C379,112.7,378.3,112.3,377.5,111.9z M375,111.8c-0.6,0.5-1.4,1-2.4,1.4l0.5,0.6c1-0.4,1.8-1,2.4-1.5L375,111.8z M369.6,106.3v0.8
		h1.3v3.8c-0.4,0.1-0.9,0.2-1.3,0.3l0.2,0.8c1.1-0.3,2.1-0.6,3-1v-0.8c-0.4,0.2-0.7,0.3-1.1,0.4V107h1.2v-0.8h-1.2v-2.7h-0.8v2.7
		H369.6z"/>
	<path d="M385.9,103.5l-0.9,0.1c0.2,0.4,0.4,0.8,0.6,1.3h-4.4v0.8h3.2c-0.9,1.3-1.7,2.2-2.2,2.5c-0.1,0-0.1,0-0.2,0.1l0.2,0.7
		c2.3-0.1,4.5-0.3,6.5-0.5c0.3,0.4,0.5,0.8,0.8,1.2l0.7-0.5c-0.5-0.9-1.3-1.9-2.2-3l-0.6,0.4c0.3,0.4,0.6,0.8,0.9,1.2
		c-1.6,0.2-3.3,0.3-4.9,0.4c0.6-0.5,1.2-1.4,2-2.6h5.2v-0.8h-4.1C386.2,104.3,386.1,103.9,385.9,103.5z M383.9,109.3
		c-0.1,1.2-0.3,2-0.7,2.5c-0.4,0.5-1.2,1-2.2,1.3l0.5,0.6c1.2-0.5,2-1,2.4-1.6c0.4-0.6,0.7-1.5,0.8-2.9H383.9z M389.4,113.6
		c0.4,0,0.7-0.1,0.9-0.3c0.2-0.2,0.4-0.9,0.5-2.1l-0.7-0.2c-0.1,0.9-0.2,1.5-0.4,1.7c-0.1,0.1-0.3,0.2-0.5,0.2h-1.3
		c-0.4,0-0.6-0.2-0.6-0.5v-3.2h-0.8v3.3c0,0.8,0.4,1.1,1.2,1.1H389.4z"/>
	<path d="M398.8,112.7h-1v-6.3c-0.2,0.2-0.5,0.5-0.9,0.7c-0.4,0.2-0.7,0.4-1,0.5v-1c0.5-0.2,1-0.6,1.4-0.9c0.4-0.4,0.7-0.7,0.9-1.1
		h0.6V112.7z"/>
	<path class="st0" d="M350.4,176.1v-9"/>
	<path class="st1" d="M350.4,162.1v5 M348.5,167.1l1.9-5l1.9,5"/>
	<path class="st5" d="M276,79.8h148.8V56.1H276V79.8z"/>
	<path class="st0" d="M276,56.1h148.8v23.6H276V56.1z"/>
	<path d="M294.2,71.7v1h-5.3c0-0.2,0-0.5,0.1-0.7c0.1-0.4,0.4-0.7,0.7-1.1c0.3-0.4,0.7-0.8,1.3-1.2c0.9-0.7,1.5-1.3,1.8-1.7
		c0.3-0.4,0.5-0.8,0.5-1.2c0-0.4-0.1-0.7-0.4-1c-0.3-0.3-0.6-0.4-1.1-0.4c-0.5,0-0.9,0.1-1.2,0.4c-0.3,0.3-0.4,0.7-0.4,1.2l-1-0.1
		c0.1-0.8,0.3-1.3,0.8-1.7c0.5-0.4,1.1-0.6,1.8-0.6c0.8,0,1.4,0.2,1.8,0.6c0.5,0.4,0.7,1,0.7,1.6c0,0.3-0.1,0.6-0.2,1
		c-0.1,0.3-0.4,0.6-0.7,1c-0.3,0.3-0.8,0.8-1.5,1.4c-0.6,0.5-1,0.8-1.2,1c-0.2,0.2-0.3,0.4-0.4,0.5H294.2z"/>
	<g>
		<defs>
			<rect id="SVGID_5_" x="298.3" y="67" width="5.9" height="5.8"/>
		</defs>
		<clipPath id="SVGID_6_">
			<use xlink:href="#SVGID_5_"  style="overflow:visible;"/>
		</clipPath>
		<g class="st6">
			<path d="M301.5,69.9l2.2-2.2c0.1-0.1,0.2-0.2,0.2-0.2c0-0.1-0.1-0.2-0.2-0.2c-0.1,0-0.1,0-0.2,0.2l-2.2,2.2l-2.2-2.2
				c-0.1-0.1-0.2-0.2-0.2-0.2c-0.1,0-0.2,0.1-0.2,0.2c0,0.1,0.1,0.1,0.2,0.2l2.2,2.2l-2.2,2.2c-0.1,0.1-0.2,0.2-0.2,0.2
				c0,0.1,0.1,0.2,0.2,0.2c0.1,0,0.1,0,0.2-0.2l2.2-2.2l2.2,2.2c0.1,0.1,0.2,0.2,0.2,0.2c0.1,0,0.2-0.1,0.2-0.2c0-0.1,0-0.1-0.2-0.2
				L301.5,69.9z"/>
			<path d="M301.5,69.9l2.2-2.2c0.1-0.1,0.2-0.2,0.2-0.2c0-0.1-0.1-0.2-0.2-0.2c-0.1,0-0.1,0-0.2,0.2l-2.2,2.2l-2.2-2.2
				c-0.1-0.1-0.2-0.2-0.2-0.2c-0.1,0-0.2,0.1-0.2,0.2c0,0.1,0.1,0.1,0.2,0.2l2.2,2.2l-2.2,2.2c-0.1,0.1-0.2,0.2-0.2,0.2
				c0,0.1,0.1,0.2,0.2,0.2c0.1,0,0.1,0,0.2-0.2l2.2-2.2l2.2,2.2c0.1,0.1,0.2,0.2,0.2,0.2c0.1,0,0.2-0.1,0.2-0.2c0-0.1,0-0.1-0.2-0.2
				L301.5,69.9z"/>
		</g>
	</g>
	<path d="M314,71.7v1h-5.3c0-0.2,0-0.5,0.1-0.7c0.1-0.4,0.4-0.7,0.7-1.1s0.7-0.8,1.3-1.2c0.9-0.7,1.5-1.3,1.8-1.7
		c0.3-0.4,0.5-0.8,0.5-1.2c0-0.4-0.1-0.7-0.4-1c-0.3-0.3-0.6-0.4-1.1-0.4c-0.5,0-0.9,0.1-1.2,0.4c-0.3,0.3-0.4,0.7-0.4,1.2l-1-0.1
		c0.1-0.8,0.3-1.3,0.8-1.7c0.5-0.4,1.1-0.6,1.8-0.6s1.4,0.2,1.8,0.6c0.5,0.4,0.7,1,0.7,1.6c0,0.3-0.1,0.6-0.2,1s-0.4,0.6-0.7,1
		c-0.3,0.3-0.8,0.8-1.5,1.4c-0.6,0.5-1,0.8-1.2,1c-0.2,0.2-0.3,0.4-0.4,0.5H314z"/>
	<path d="M318.4,67.9v0.6h1.1v3.9l-1.1,0l0.1,0.7c1.6-0.1,2.9-0.2,4-0.3v1h0.8v-1.1c0.2,0,0.4-0.1,0.6-0.1V72
		c-0.2,0-0.4,0.1-0.6,0.1v-3.6h5.1v-0.6H318.4z M320.2,72.4v-1h2.3v0.8C321.8,72.3,321.1,72.3,320.2,72.4z M320.2,70.8V70h2.3v0.8
		H320.2z M320.2,69.4v-0.9h2.3v0.9H320.2z M319.9,63.9v3.2h7.1v-3.2H319.9z M326.2,66.6h-5.6v-0.8h5.6V66.6z M320.6,65.2v-0.7h5.6
		v0.7H320.6z M324.2,70c0.2,0.8,0.6,1.6,1.3,2.2c-0.5,0.4-1.1,0.7-1.7,1l0.4,0.6c0.7-0.3,1.4-0.7,1.9-1.2c0.5,0.4,1.1,0.8,1.9,1.2
		l0.4-0.7c-0.7-0.3-1.3-0.6-1.8-1c0.5-0.6,0.9-1.4,1.1-2.2v-0.6h-3.8V70H324.2z M326,71.7c-0.5-0.5-0.9-1.1-1.1-1.7h2.1
		C326.8,70.6,326.5,71.2,326,71.7z"/>
	<path d="M329.7,66.5v0.8h4.2c-0.6,2.8-2.1,4.7-4.5,5.9l0.5,0.7c2.4-1.3,3.9-3.2,4.6-6c0.9,2.6,2.4,4.5,4.7,5.9l0.5-0.6
		c-2.3-1.4-3.9-3.3-4.6-5.9h4.4v-0.8h-4.7c0.1-0.7,0.1-1.4,0.1-2.2v-0.7h-0.8v0.9c0,0.7-0.1,1.4-0.2,2H329.7z"/>
	<path d="M345.4,72.6v-7.9h5.4V64h-6.2v9.5h6.3v-0.8H345.4z M341.6,63.7l-0.6,0.6c0.9,0.6,1.7,1.2,2.2,1.7l0.6-0.6
		C343.2,64.9,342.5,64.3,341.6,63.7z M341.4,66.5l-0.6,0.6c0.9,0.6,1.5,1.1,2.1,1.7l0.6-0.6C342.9,67.6,342.2,67,341.4,66.5z
		 M342.7,69.8c-0.5,1.2-1.1,2.4-1.8,3.6l0.8,0.4c0.6-1.1,1.2-2.4,1.7-3.7L342.7,69.8z"/>
	<path d="M356.8,69.9v3.9h0.7v-4l0.6-0.1c0.4,1.7,1.6,3,3.5,4l0.4-0.7c-0.9-0.4-1.6-0.9-2.1-1.4c0.6-0.4,1.2-0.8,1.6-1.1l-0.4-0.6
		c-0.4,0.4-1,0.8-1.6,1.2c-0.3-0.4-0.6-1-0.7-1.5c0.8-0.2,1.5-0.4,2.1-0.6l-0.4-0.6c-2,0.7-4.5,1-7.4,1l0.2,0.7
		C354.6,70.1,355.7,70,356.8,69.9z M352.4,63.9v0.6h0.9v3.3c-0.4,0-0.7,0.1-1.1,0.1l0.1,0.7c1.3-0.1,2.6-0.3,3.8-0.4v0.6h0.7v-0.7
		c0.3,0,0.5-0.1,0.8-0.1v-0.6c-0.3,0-0.5,0.1-0.8,0.1v-2.9h0.8v-0.6H352.4z M353.9,67.8V67h2v0.5C355.4,67.6,354.7,67.7,353.9,67.8z
		 M353.9,66.4v-0.6h2v0.6H353.9z M353.9,65.2v-0.7h2v0.7H353.9z M358.2,65.3l-0.5,0.5c0.6,0.4,1.2,0.8,1.7,1.2
		c-0.5,0.5-1.1,0.8-1.8,1l0.3,0.7c0.8-0.3,1.5-0.7,2.1-1.3c0.5,0.4,0.9,0.7,1.3,1.1l0.5-0.5c-0.4-0.4-0.8-0.7-1.3-1.1
		c0.4-0.6,0.9-1.3,1.2-2.1v-0.6h-3.9V65h3c-0.3,0.6-0.6,1.1-0.9,1.5C359.4,66.1,358.9,65.7,358.2,65.3z M354.8,70.2
		c-0.3,0.3-0.7,0.5-1,0.7c-0.4,0.2-0.9,0.4-1.5,0.5l0.4,0.6c0.6-0.2,1.2-0.4,1.6-0.7c0.4-0.2,0.7-0.5,1.1-0.8L354.8,70.2z
		 M355.7,71.4c-0.4,0.4-0.9,0.7-1.4,0.9c-0.6,0.3-1.2,0.5-1.9,0.7l0.4,0.6c0.8-0.3,1.5-0.6,2-0.9c0.5-0.3,1-0.6,1.4-1L355.7,71.4z"
		/>
	<path d="M366.4,67.8v0.7h6.1v-0.7H366.4z M365.6,69.6v0.7h2.5c-0.8,1.3-1.4,2.1-1.9,2.3c-0.1,0-0.1,0.1-0.2,0.1l0.2,0.7
		c2.1-0.1,4.1-0.3,5.9-0.6c0.2,0.3,0.4,0.6,0.6,0.9l0.6-0.4c-0.5-0.7-1.2-1.6-2.1-2.6l-0.6,0.4c0.3,0.4,0.7,0.8,1,1.1
		c-1.4,0.2-2.9,0.4-4.4,0.5c0.5-0.5,1.1-1.3,1.8-2.4h4.3v-0.7H365.6z M371.9,64.7V66h-6.6v-1.3H371.9z M365.3,66.7h7.4v-2.8h-8.2
		v3.7c0,2.3-0.4,4.1-1.2,5.5l0.6,0.5c0.9-1.7,1.4-3.7,1.4-6.1V66.7z"/>
	<path d="M375,72.7v-1.1h1.1v1.1c0,0.4-0.1,0.7-0.2,1c-0.1,0.3-0.4,0.5-0.7,0.6l-0.3-0.4c0.2-0.1,0.4-0.2,0.4-0.4
		c0.1-0.2,0.2-0.4,0.2-0.8H375z"/>
	<path d="M385.5,63.5v3.7h-2.1v-2.8h-0.8v2.8h-1.7V68h4.7v3.4h0.8V68h4.5v-0.8h-4.5v-1.5h3.4v-0.8h-3.4v-1.4H385.5z M389.2,68.8
		c-1.2,2.9-3.8,4.3-7.7,4.3l0.3,0.8c4,0,6.7-1.6,8.1-4.7L389.2,68.8z M383.6,68.5c-0.6,1-1.4,1.9-2.4,2.6l0.5,0.7
		c1-0.8,1.8-1.7,2.5-2.7L383.6,68.5z"/>
	<path d="M396.3,63.9v0.7h5.8v-0.7H396.3z M397,65.5v2.5h4.5v-2.5H397z M400.7,67.3h-2.9v-1.2h2.9V67.3z M401.9,68.7h-5.4v5.1h0.8
		v-0.5h3.9v0.5h0.8V68.7z M397.3,72.6v-1.3h1.6v1.3H397.3z M399.6,72.6v-1.3h1.6v1.3H399.6z M397.3,70.7v-1.3h1.6v1.3H397.3z
		 M399.6,69.4h1.6v1.3h-1.6V69.4z M395.1,71.9c0.5,0,0.8-0.3,0.8-0.8v-5.7h-1.4v-1.8h-0.7v1.8h-1.5v6.6h0.7V66h0.8v7.8h0.7v-2v0.1
		H395.1z M394.5,66h0.8v4.9c0,0.2-0.1,0.3-0.3,0.3l-0.4,0V66z"/>
	<path d="M411.6,71.7v1h-5.3c0-0.2,0-0.5,0.1-0.7c0.1-0.4,0.4-0.7,0.7-1.1c0.3-0.4,0.7-0.8,1.3-1.2c0.9-0.7,1.5-1.3,1.8-1.7
		c0.3-0.4,0.5-0.8,0.5-1.2c0-0.4-0.1-0.7-0.4-1c-0.3-0.3-0.6-0.4-1.1-0.4c-0.5,0-0.9,0.1-1.2,0.4c-0.3,0.3-0.4,0.7-0.4,1.2l-1-0.1
		c0.1-0.8,0.3-1.3,0.8-1.7c0.5-0.4,1.1-0.6,1.8-0.6c0.8,0,1.4,0.2,1.8,0.6c0.5,0.4,0.7,1,0.7,1.6c0,0.3-0.1,0.6-0.2,1
		c-0.1,0.3-0.4,0.6-0.7,1c-0.3,0.3-0.8,0.8-1.5,1.4c-0.6,0.5-1,0.8-1.2,1c-0.2,0.2-0.3,0.4-0.4,0.5H411.6z"/>
	<path class="st0" d="M350.4,96.1v-9"/>
	<path class="st1" d="M350.4,82.1v5 M348.5,87.1l1.9-5l1.9,5"/>
	<path d="M346,151.5v-1.1h1.1v1.1H346z M349.8,151.5v-1.1h1.1v1.1H349.8z M353.5,151.5v-1.1h1.1v1.1H353.5z"/>
</g>
</svg>
